<?xml version="1.0" encoding="UTF-8"?>
<svg version="1.1" xmlns="http://www.w3.org/2000/svg" width="1080" height="1080">
<path d="M0 0 C6.39877312 0.3512453 6.39877312 0.3512453 8.9765625 3.1328125 C9.52054688 4.12023437 10.06453125 5.10765625 10.625 6.125 C10.94218994 6.68268066 11.25937988 7.24036133 11.58618164 7.81494141 C12.31860916 9.10958322 13.03951756 10.41078058 13.75146484 11.71679688 C15.16969534 14.3103228 16.62364941 16.88196627 18.08203125 19.453125 C19.77714638 22.44236028 21.46992636 25.43271865 23.15307617 28.42871094 C26.16876835 33.79555432 29.22831372 39.12174119 32.4375 44.375 C37.16483205 52.12232351 41.55160658 60.05979935 45.95288086 67.99560547 C49.5159706 74.40764539 53.19847398 80.72692214 57 87 C61.93727822 95.27360048 66.8143343 103.56431519 71.37109375 112.0546875 C73.94428774 116.70741716 76.66892598 121.27001009 79.37646484 125.84545898 C82.33618307 130.85251388 85.21455897 135.89335811 88 141 C91.29173253 138.21548411 93.09153733 134.53629241 95.125 130.8125 C95.91765771 129.37873425 96.71063644 127.94514593 97.50390625 126.51171875 C97.91141113 125.77228027 98.31891602 125.0328418 98.73876953 124.27099609 C100.00569698 121.98974191 101.29377863 119.72184266 102.58984375 117.45703125 C103.00411621 116.73088623 103.41838867 116.00474121 103.84521484 115.2565918 C104.6461275 113.85411117 105.44976664 112.45318345 106.25634766 111.05395508 C108.30779147 107.73754892 108.30779147 107.73754892 109 104 C106.04239873 101.90251747 103.05004404 99.9067843 99.9765625 97.984375 C95.18564644 94.77739445 95.18564644 94.77739445 94.25 90.859375 C95 88 95 88 97.20654297 86.46582031 C99.91554414 85.04431681 102.60742017 83.82834154 105.4453125 82.6875 C106.50943359 82.25711426 107.57355469 81.82672852 108.66992188 81.38330078 C109.81009766 80.92681152 110.95027344 80.47032227 112.125 80 C114.55470215 79.01826542 116.9843892 78.03649348 119.4140625 77.0546875 C120.6760337 76.54636803 121.93807846 76.03823116 123.20019531 75.53027344 C129.30462463 73.0729206 135.4028448 70.60034443 141.5 68.125 C142.58941895 67.68542969 143.67883789 67.24585938 144.80126953 66.79296875 C153.25128829 63.36450422 161.5542615 59.68564335 169.75 55.6875 C173.71724396 53.90760136 176.68751525 53.63298002 181 54 C184.44811396 60.89622791 181.55746824 71.94753381 180.57421875 79.296875 C180.42596146 80.44754456 180.27770416 81.59821411 180.12495422 82.78375244 C179.65231914 86.44004963 179.17010249 90.09500653 178.6875 93.75 C178.37501348 96.15486516 178.06315977 98.55981263 177.75195312 100.96484375 C177.14013382 105.68777516 176.52052983 110.40959381 175.89599609 115.13085938 C175.29506487 119.69183123 174.7213005 124.25498593 174.17041016 128.82226562 C173.97352348 130.42306976 173.97352348 130.42306976 173.7726593 132.05621338 C173.52644337 134.06461045 173.28683306 136.07383194 173.05485535 138.08392334 C172.94498795 138.96920715 172.83512054 139.85449097 172.72192383 140.76660156 C172.63018387 141.53989807 172.53844391 142.31319458 172.44392395 143.10992432 C172 145 172 145 170 147 C163.85511869 146.88182921 161.30068018 145.00063272 157 141 C156.34 140.67 155.68 140.34 155 140 C154.79890625 140.76957031 154.5978125 141.53914062 154.390625 142.33203125 C152.4369695 147.48507203 149.60328981 151.98627418 146.75 156.6875 C142.79300336 163.2506565 138.96573375 169.84670417 135.32617188 176.59155273 C133.79389358 179.37430778 132.12919169 182.03958505 130.375 184.6875 C125.14871604 191.92953816 125.14871604 191.92953816 123.13671875 200.22265625 C124.35508314 204.14237155 126.28227834 207.50767191 128.3125 211.0625 C128.74820312 211.83601807 129.18390625 212.60953613 129.6328125 213.40649414 C135.48855916 223.7313714 141.41383147 234.12074721 148 244 C149.36920746 252.98200092 145.11667191 259.10019434 140.625 266.5 C139.87913161 267.76113881 139.1350856 269.02335711 138.39282227 270.28662109 C136.93180777 272.76624921 135.46069893 275.23931534 133.97802734 277.70605469 C131.98347582 281.02751719 130.01720369 284.36416893 128.06054688 287.70800781 C126.91690225 289.66015946 125.7653932 291.60752309 124.61328125 293.5546875 C121.24588997 299.26443776 117.93786375 305.00850505 114.625 310.75 C113.985625 311.85512939 113.34625 312.96025879 112.6875 314.09887695 C109.60904762 319.42957942 106.55928982 324.77219722 103.58203125 330.16015625 C102.78321533 331.59439941 102.78321533 331.59439941 101.96826172 333.05761719 C100.97912722 334.83774376 99.99957623 336.6232446 99.03173828 338.41503906 C95.92848369 343.97864291 92.84088379 348.0795581 87 351 C85.19293092 351.10105776 83.38214516 351.13837941 81.57226562 351.14526367 C80.43768921 351.15164352 79.30311279 351.15802338 78.13415527 351.16459656 C76.28884216 351.16626579 76.28884216 351.16626579 74.40625 351.16796875 C72.51984802 351.17296135 72.51984802 351.17296135 70.59533691 351.17805481 C67.93217436 351.18312512 65.26911383 351.18589475 62.60595703 351.18530273 C59.18930914 351.185201 55.77286854 351.19886531 52.35626984 351.21607494 C49.10210417 351.22984805 45.84794089 351.22928305 42.59375 351.23046875 C40.74843689 351.24124702 40.74843689 351.24124702 38.86584473 351.25224304 C37.73126831 351.24916641 36.59669189 351.24608978 35.42773438 351.24291992 C34.42560913 351.24434494 33.42348389 351.24576996 32.39099121 351.24723816 C30 351 30 351 28 349 C28.29214715 344.50896884 29.55653895 341.65105274 32.07421875 337.9765625 C35.91486714 332.18279315 39.37440057 326.22479164 42.79464722 320.1751709 C44.54203463 317.08474759 46.29854716 313.99951779 48.0546875 310.9140625 C48.57001289 310.00805298 48.57001289 310.00805298 49.0957489 309.08374023 C51.8320366 304.27918765 54.61758863 299.50582549 57.4375 294.75 C60.41633553 289.72071042 63.33637932 284.66529848 66.1875 279.5625 C74.38708661 264.88965398 82.82207317 250.34444307 91.375 235.875 C95.29138805 229.23863073 99.19670314 222.60004462 102.83203125 215.8046875 C104.22946547 213.23185941 105.7456559 210.97946526 107.57421875 208.6953125 C111.05890709 203.77086825 111.05890709 203.77086825 112 198 C109.62547513 190.61658217 105.08630721 184.1377362 100.81494141 177.73339844 C98.72905261 174.5919388 96.77654132 171.38789557 94.8515625 168.14624023 C94.09348704 166.87064472 93.32444392 165.60148349 92.54296875 164.34008789 C90 160.2167941 90 160.2167941 90 158 C89.34 158 88.68 158 88 158 C87.75765625 158.66386719 87.5153125 159.32773437 87.265625 160.01171875 C85.67517742 163.76694219 83.74383418 167.25858358 81.75 170.8125 C81.31961426 171.58368164 80.88922852 172.35486328 80.44580078 173.14941406 C75.49671922 181.97055699 70.37471306 190.69123185 65.26171875 199.41796875 C62.70601677 203.78259089 60.18343915 208.16346951 57.6875 212.5625 C55.04636085 217.20978101 52.32871085 221.80179081 49.5625 226.375 C46.59396405 231.28464678 43.72238874 236.23406532 40.9375 241.25 C36.79133737 248.71158229 32.43185239 256.04285891 28.0625 263.375 C20.70784926 275.72329387 13.34335083 288.09318207 7 301 C4.69 301 2.38 301 0 301 C-0.57947388 299.94594971 -0.57947388 299.94594971 -1.1706543 298.87060547 C-9.33740537 284.03709422 -17.66915946 269.33550434 -26.34228516 254.79052734 C-29.33659704 249.75002885 -32.29425798 244.68818331 -35.25 239.625 C-35.8370874 238.62090088 -36.4241748 237.61680176 -37.02905273 236.58227539 C-39.6419994 232.10067149 -42.23287684 227.6108813 -44.7421875 223.0703125 C-45.15049805 222.33216309 -45.55880859 221.59401367 -45.97949219 220.83349609 C-46.71327136 219.49886876 -47.44106222 218.1609208 -48.16113281 216.81884766 C-50.06223867 213.35195662 -52.05437666 210.64451518 -55 208 C-55.20625 208.78375 -55.4125 209.5675 -55.625 210.375 C-57.13857693 214.36533918 -59.13298221 217.68745426 -61.3671875 221.30859375 C-62.95097496 223.91919079 -64.42633094 226.56244182 -65.875 229.25 C-70.93163671 238.60346791 -76.27419855 247.78749734 -81.6875 256.9375 C-85.56499649 263.49457941 -89.33200131 270.10832578 -93.0625 276.75 C-98.54747805 286.51063052 -104.1824181 296.17673837 -109.86105347 305.82528687 C-114.00743862 312.87194375 -118.13683734 319.92456996 -122.125 327.0625 C-122.46861572 327.67512695 -122.81223145 328.28775391 -123.16625977 328.91894531 C-124.75321403 331.75259576 -126.32391908 334.59396389 -127.87890625 337.4453125 C-128.47574219 338.51523437 -129.07257813 339.58515625 -129.6875 340.6875 C-130.43580078 342.05455078 -130.43580078 342.05455078 -131.19921875 343.44921875 C-133.47710422 346.67581139 -135.46596869 349.20281373 -139 351 C-143.4025955 351.71710698 -147.75173184 351.62919907 -152.203125 351.55859375 C-153.47726257 351.55626236 -154.75140015 351.55393097 -156.06414795 351.55152893 C-158.75130481 351.54180002 -161.43631811 351.52278655 -164.12304688 351.48706055 C-167.56880154 351.44160608 -171.0138006 351.4270239 -174.45982742 351.42332363 C-177.74934616 351.41783873 -181.03869155 351.39447272 -184.328125 351.37109375 C-185.5676593 351.36573105 -186.8071936 351.36036835 -188.08428955 351.35484314 C-189.22597595 351.33885574 -190.36766235 351.32286835 -191.54394531 351.30639648 C-192.55177063 351.29575668 -193.55959595 351.28511688 -194.59796143 351.27415466 C-197 351 -197 351 -199 349 C-198.94811602 342.33290897 -195.81929534 337.72503288 -192.375 332.1875 C-191.18207207 330.22097436 -189.99073031 328.25348585 -188.80078125 326.28515625 C-188.1763916 325.25793457 -187.55200195 324.23071289 -186.90869141 323.17236328 C-183.71684658 317.86731957 -180.64279793 312.49532238 -177.5625 307.125 C-172.67549395 298.62826642 -167.76089183 290.14862642 -162.8125 281.6875 C-155.49626734 269.16974757 -148.30122023 256.58439961 -141.1484375 243.97265625 C-135.1605993 233.43308739 -129.04042344 222.97885019 -122.8343811 212.56658936 C-118.16192426 204.72276235 -113.62353738 196.82522732 -109.24267578 188.81542969 C-106.54152661 183.90024283 -103.62500916 179.17275711 -100.5625 174.47265625 C-98.45971735 171.1450027 -96.62443611 167.69861896 -94.765625 164.23046875 C-92.57374834 160.22011035 -90.29344517 156.26543321 -88 152.3125 C-87.5356958 151.51207275 -87.0713916 150.71164551 -86.59301758 149.88696289 C-83.91378623 145.27593291 -81.22324418 140.6716142 -78.52734375 136.0703125 C-72.8158386 126.31660308 -67.14165293 116.55270213 -61.68505859 106.65380859 C-53.46753641 91.75766373 -44.89655529 77.05695486 -36.35888672 62.34277344 C-34.07001679 58.39667285 -31.78519757 54.44822801 -29.5 50.5 C-26.71617783 45.69063188 -23.93168586 40.88165658 -21.14453125 36.07421875 C-20.20046706 34.44534367 -19.25645608 32.81643774 -18.3125 31.1875 C-17.85536621 30.39883545 -17.39823242 29.6101709 -16.92724609 28.79760742 C-14.13837772 23.98124884 -11.37437682 19.15148245 -8.625 14.3125 C-5.86200133 9.46303937 -3.00850282 4.70078566 0 0 Z M3 109 C1.65658338 111.0619883 0.37950063 113.13420043 -0.875 115.25 C-1.26703613 115.90661621 -1.65907227 116.56323242 -2.06298828 117.23974609 C-6.87142803 125.36655419 -11.3817624 133.66266614 -15.86230469 141.97363281 C-17 144 -17 144 -18.8828125 146.7734375 C-20.20534788 148.95409443 -20.20534788 148.95409443 -19.87890625 151.47265625 C-18.86449553 154.38965063 -17.54447924 156.79824708 -15.9375 159.4375 C-13.24062913 163.93228479 -10.58703547 168.44164981 -8 173 C-4.37772741 179.35953301 -0.70068012 185.68571454 3 192 C5.10012374 189.29337831 6.91085041 186.55636474 8.6015625 183.578125 C9.08802246 182.72484619 9.57448242 181.87156738 10.07568359 180.99243164 C11.12345796 179.13777525 12.17064249 177.28278552 13.21728516 175.42749023 C15.71268313 171.00740595 18.21868815 166.60475167 20.859375 162.26953125 C21.28653809 161.55442383 21.71370117 160.83931641 22.15380859 160.10253906 C22.94802779 158.77577065 23.75755694 157.45800752 24.58447266 156.15136719 C26.37243668 153.12027994 27.08451908 151.48225591 26.46875 147.96875 C24.84256553 144.68178139 23.07108639 141.54136832 21.125 138.4375 C17.10064442 131.88383991 13.24175432 125.24624566 9.4375 118.5625 C8.9007666 117.62011475 8.3640332 116.67772949 7.81103516 115.70678711 C6.53935552 113.4719455 5.26894012 111.23639791 4 109 C3.67 109 3.34 109 3 109 Z " fill="#000E57" transform="translate(527,322)"/>
<path d="M0 0 C1.953125 0.7109375 1.953125 0.7109375 4 2 C4.609375 4.1640625 4.609375 4.1640625 4.75 6.625 C4.80671875 7.44226563 4.8634375 8.25953125 4.921875 9.1015625 C4.94765625 9.72804688 4.9734375 10.35453125 5 11 C4.34 11 3.68 11 3 11 C3.495 12.485 3.495 12.485 4 14 C4.763125 14 5.52625 14 6.3125 14 C9 15 9 15 9.96484375 16.70703125 C11.2236591 20.08266048 12.15085334 23.50120125 13 27 C14.32 27 15.64 27 17 27 C17 28.32 17 29.64 17 31 C17.66 31 18.32 31 19 31 C19.495 34.465 19.495 34.465 20 38 C20.99 37.67 21.98 37.34 23 37 C23 38.32 23 39.64 23 41 C23.66 41 24.32 41 25 41 C25 42.32 25 43.64 25 45 C26.32 45 27.64 45 29 45 C29 46.98 29 48.96 29 51 C29.66 51 30.32 51 31 51 C31 51.66 31 52.32 31 53 C32.98 53.495 32.98 53.495 35 54 C36.02522774 62.6621762 33.51533323 67.7894137 28.9375 75 C27.64204626 77.12688413 26.3478166 79.25451421 25.0546875 81.3828125 C24.04680176 83.01911621 24.04680176 83.01911621 23.01855469 84.68847656 C19.76518593 90.02576416 16.66836802 95.45101385 13.5625 100.875 C12.31306968 103.044599 11.06306568 105.21386772 9.8125 107.3828125 C9.18859375 108.46594727 8.5646875 109.54908203 7.921875 110.66503906 C5.94955494 114.0875355 3.97511853 117.50880576 2 120.9296875 C1.34499512 122.06462646 0.68999023 123.19956543 0.01513672 124.36889648 C-1.27091526 126.59576993 -2.55831647 128.8218648 -3.84716797 131.04711914 C-6.44170527 135.5320807 -9.02835121 140.0166051 -11.5078125 144.56640625 C-11.86496338 145.21577148 -12.22211426 145.86513672 -12.59008789 146.53417969 C-13.46729765 148.13839658 -14.33023736 149.75039659 -15.19140625 151.36328125 C-17.75936564 155.10706654 -20.89697628 157.94848814 -25 160 C-26.80706908 160.10105776 -28.61785484 160.13837941 -30.42773438 160.14526367 C-32.129599 160.15483345 -32.129599 160.15483345 -33.86584473 160.16459656 C-35.09605347 160.16570938 -36.32626221 160.1668222 -37.59375 160.16796875 C-38.85135132 160.17129715 -40.10895264 160.17462555 -41.40466309 160.17805481 C-44.06782564 160.18312512 -46.73088617 160.18589475 -49.39404297 160.18530273 C-52.81069086 160.185201 -56.22713146 160.19886531 -59.64373016 160.21607494 C-62.89789583 160.22984805 -66.15205911 160.22928305 -69.40625 160.23046875 C-71.25156311 160.24124702 -71.25156311 160.24124702 -73.13415527 160.25224304 C-74.8360199 160.2476281 -74.8360199 160.2476281 -76.57226562 160.24291992 C-77.57439087 160.24434494 -78.57651611 160.24576996 -79.60900879 160.24723816 C-82 160 -82 160 -84 158 C-83.70785285 153.50896884 -82.44346105 150.65105274 -79.92578125 146.9765625 C-76.08513286 141.18279315 -72.62559943 135.22479164 -69.20535278 129.1751709 C-67.45796537 126.08474759 -65.70145284 122.99951779 -63.9453125 119.9140625 C-63.60176224 119.31005615 -63.25821198 118.7060498 -62.9042511 118.08374023 C-60.1679634 113.27918765 -57.38241137 108.50582549 -54.5625 103.75 C-51.58366447 98.72071042 -48.66362068 93.66529848 -45.8125 88.5625 C-37.23099699 73.20622922 -28.38305217 57.9969374 -19.43041992 42.85449219 C-16.30557661 37.55450642 -13.26847976 32.20835555 -10.2722168 26.8347168 C-8.43197586 23.53515943 -6.57146167 20.25119808 -4.66015625 16.9921875 C-4.28648926 16.35176514 -3.91282227 15.71134277 -3.52783203 15.05151367 C-2.5009649 13.29599854 -1.4674938 11.5443511 -0.43359375 9.79296875 C1.45481227 6.11392161 1.06010412 3.84287743 0 0 Z " fill="#001A84" transform="translate(639,513)"/>
<path d="M0 0 C1.59643555 1.39624023 1.59643555 1.39624023 2.94921875 3.37109375 C3.45372559 4.10440918 3.95823242 4.83772461 4.47802734 5.59326172 C7.06027862 9.67664849 9.46558553 13.84015288 11.8125 18.0625 C12.85672366 19.91742687 13.90230789 21.77158844 14.94921875 23.625 C15.46145996 24.5325 15.97370117 25.44 16.50146484 26.375 C19.00268728 30.75641798 21.60772579 35.07358222 24.23364258 39.38110352 C29.40705885 47.89411723 29.40705885 47.89411723 29 54 C27.24691463 55.75308537 24.79026639 55.12760431 22.41040039 55.12939453 C21.21568619 55.13254669 20.02097198 55.13569885 18.79005432 55.13894653 C17.48906296 55.1369223 16.18807159 55.13489807 14.84765625 55.1328125 C13.50866173 55.13348567 12.16966732 55.13445581 10.83067322 55.13571167 C8.02032308 55.13718853 5.21000466 55.13503483 2.3996582 55.13037109 C-1.20640819 55.12467928 -4.81240007 55.12794939 -8.41846371 55.13394356 C-11.18506941 55.13755419 -13.9516574 55.13640817 -16.71826363 55.13381577 C-18.69587884 55.13282203 -20.67349473 55.13586474 -22.65110779 55.13894653 C-23.84897415 55.13579437 -25.04684052 55.13264221 -26.28100586 55.12939453 C-27.86866005 55.12820114 -27.86866005 55.12820114 -29.48838806 55.12698364 C-32 55 -32 55 -34 54 C-34.61869557 47.54550028 -32.87734076 44.36019682 -29.375 39.25 C-28.44170038 37.8257298 -27.51070609 36.39994627 -26.58203125 34.97265625 C-26.13166504 34.28703613 -25.68129883 33.60141602 -25.21728516 32.89501953 C-23.71188814 30.5514793 -22.36764251 28.14763587 -21.0625 25.6875 C-18.22263893 20.35969147 -15.25252717 15.11234898 -12.25 9.875 C-11.76539307 9.01994873 -11.28078613 8.16489746 -10.78149414 7.28393555 C-10.32250732 6.48640869 -9.86352051 5.68888184 -9.390625 4.8671875 C-8.97844727 4.14644043 -8.56626953 3.42569336 -8.14160156 2.68310547 C-6.01995978 -0.44490959 -3.55220386 -0.37917735 0 0 Z " fill="#012094" transform="translate(476,618)"/>
<path d="M0 0 C1.84375 1.96484375 1.84375 1.96484375 3.5 4.9375 C3.81694824 5.49018555 4.13389648 6.04287109 4.46044922 6.61230469 C5.66463645 8.72862087 6.83064902 10.86423256 8 13 C9.75063106 16.14096147 11.50675563 19.27880993 13.26367188 22.41625977 C14.48251405 24.59927261 15.69500848 26.78584462 16.90039062 28.97631836 C19.98623403 34.55701571 23.17037013 39.93123106 26.87426758 45.1262207 C28.5237448 47.87177213 28.67988613 49.90274094 28 53 C24.61665674 55.25556218 23.44027069 55.25632982 19.47460938 55.2746582 C18.34333618 55.28419022 17.21206299 55.29372223 16.04650879 55.30354309 C14.21364319 55.30217598 14.21364319 55.30217598 12.34375 55.30078125 C11.0899353 55.30506638 9.83612061 55.3093515 8.54431152 55.31376648 C5.89121516 55.31951407 3.23850733 55.32094009 0.58544922 55.31567383 C-2.81438216 55.30987467 -6.21366955 55.32682194 -9.61341095 55.3500185 C-12.85685344 55.36828937 -16.10026528 55.36457083 -19.34375 55.36328125 C-20.5656604 55.372491 -21.7875708 55.38170074 -23.04650879 55.39118958 C-24.17778198 55.38496078 -25.30905518 55.37873199 -26.47460938 55.37231445 C-27.4714978 55.37294388 -28.46838623 55.3735733 -29.4954834 55.3742218 C-32 55 -32 55 -33.83752441 53.66423035 C-35 52 -35 52 -35.125 49 C-34.45049855 45.46244043 -32.81783375 42.95357853 -30.83984375 39.97265625 C-27.12586528 34.25453449 -23.75327531 28.39309642 -20.4375 22.4375 C-17.24195012 16.71612626 -14.03658474 11.00153788 -10.72265625 5.34765625 C-10.24707275 4.53433838 -9.77148926 3.72102051 -9.28149414 2.88305664 C-6.87434264 -0.65406652 -4.03273595 -0.48372464 0 0 Z " fill="#001F95" transform="translate(697,618)"/>
<path d="M0 0 C-1 3 -1 3 -4 5 C-5.15997192 7.27126131 -5.15997192 7.27126131 -6.0625 9.875 C-9.32905591 18.66452796 -9.32905591 18.66452796 -12 20 C-12.33 21.155 -12.66 22.31 -13 23.5 C-13.33 24.655 -13.66 25.81 -14 27 C-14.99 27.495 -14.99 27.495 -16 28 C-17.07594065 30.02120024 -17.97847466 32.09289801 -18.90234375 34.1875 C-20 36 -20 36 -23 37 C-22.67 37.99 -22.34 38.98 -22 40 C-23.67079604 43.25805227 -25.7773322 46.10086808 -28 49 C-30.11181389 51.84912783 -30.11181389 51.84912783 -30.875 54.9375 C-32.09145068 58.24894908 -33.46418585 59.62778676 -36 62 C-36.33 62.99 -36.66 63.98 -37 65 C-37.66 65 -38.32 65 -39 65 C-38.67 65.99 -38.34 66.98 -38 68 C-39.36182297 71.17758693 -40.54859213 73.54859213 -43 76 C-48.90298801 82.77459122 -48.90298801 82.77459122 -52 91 C-52.66 91 -53.32 91 -54 91 C-53.979375 91.763125 -53.95875 92.52625 -53.9375 93.3125 C-54 96 -54 96 -55 99 C-55.66 99 -56.32 99 -57 99 C-57.268125 99.928125 -57.53625 100.85625 -57.8125 101.8125 C-58.99171887 104.9777717 -59.73191472 105.73191472 -62 108 C-62.45375 109.19625 -62.9075 110.3925 -63.375 111.625 C-63.91125 112.73875 -64.4475 113.8525 -65 115 C-67.5625 115.625 -67.5625 115.625 -70 116 C-71.24714403 118.40952023 -71.24714403 118.40952023 -72 121 C-72.99 121.99 -72.99 121.99 -74 123 C-74.33 122.01 -74.66 121.02 -75 120 C-73.73513694 117.51975509 -72.41053088 115.22876683 -70.9375 112.875 C-70.00633903 111.34282921 -69.07813208 109.80886059 -68.15234375 108.2734375 C-67.64558105 107.43393555 -67.13881836 106.59443359 -66.61669922 105.72949219 C-63.6436173 100.71000323 -60.8319886 95.59996804 -58 90.5 C-53.64878896 82.68941567 -49.24231792 74.92289989 -44.67871094 67.23461914 C-41.47730186 61.83500452 -38.354843 56.39314546 -35.25 50.9375 C-29.1065729 40.15279413 -22.87352324 29.42201289 -16.58935547 18.71875 C-15.13188335 16.22559954 -13.69031346 13.72407425 -12.25390625 11.21875 C-11.46126128 9.85397856 -10.66831892 8.48937979 -9.875 7.125 C-9.36223511 6.21548584 -9.36223511 6.21548584 -8.83911133 5.28759766 C-6.74032212 1.71422583 -4.41328654 -2.20664327 0 0 Z " fill="#0F1023" transform="translate(517,349)"/>
<path d="M0 0 C1.32 0 2.64 0 4 0 C4.495 0.99 4.495 0.99 5 2 C5.99 1.34 6.98 0.68 8 0 C6.36845317 6.04276605 3.2465012 11.13281449 0.125 16.5 C-0.40480469 17.42425781 -0.93460937 18.34851563 -1.48046875 19.30078125 C-9.54457292 33.28789989 -9.54457292 33.28789989 -15 37 C-17.78971863 37.49447632 -17.78971863 37.49447632 -20.86010742 37.48583984 C-22.014478 37.4919931 -23.16884857 37.49814636 -24.35820007 37.50448608 C-25.59479874 37.49011505 -26.8313974 37.47574402 -28.10546875 37.4609375 C-29.38102127 37.46002106 -30.65657379 37.45910461 -31.97077942 37.4581604 C-34.66360215 37.45212303 -37.35504647 37.43853474 -40.04760742 37.41162109 C-43.50122209 37.37753903 -46.95425207 37.36999581 -50.40801525 37.37151146 C-53.70305775 37.37083781 -56.99797722 37.35317204 -60.29296875 37.3359375 C-61.53564011 37.33371185 -62.77831146 37.33148621 -64.05863953 37.32919312 C-65.20355362 37.31643341 -66.34846771 37.30367371 -67.52807617 37.29052734 C-69.04433846 37.27909195 -69.04433846 37.27909195 -70.5912323 37.26742554 C-73 37 -73 37 -75 35 C-75.1579656 27.73358233 -70.93139481 21.86818491 -67 16 C-66.67 16 -66.34 16 -66 16 C-65.8224718 19.01797946 -66.00388606 21.01051522 -67.0625 23.875 C-68.41554285 27.59050826 -68.41554285 27.59050826 -67 34 C-51.16 34 -35.32 34 -19 34 C-19 32.68 -19 31.36 -19 30 C-17.68 29.34 -16.36 28.68 -15 28 C-14.505 29.485 -14.505 29.485 -14 31 C-13.505 29.515 -13.505 29.515 -13 28 C-12.34 28 -11.68 28 -11 28 C-11 26.02 -11 24.04 -11 22 C-12.32 22 -13.64 22 -15 22 C-15 21.34 -15 20.68 -15 20 C-13.02 20 -11.04 20 -9 20 C-9 20.66 -9 21.32 -9 22 C-8.34 22 -7.68 22 -7 22 C-7 19.36 -7 16.72 -7 14 C-5.68 14 -4.36 14 -3 14 C-3.04125 13.2575 -3.0825 12.515 -3.125 11.75 C-2.99247435 8.83443565 -2.3449223 7.53161845 -1 5 C-0.62331656 3.34259285 -0.27942455 1.67654729 0 0 Z " fill="#0E348A" transform="translate(403,636)"/>
<path d="M0 0 C0.66 0 1.32 0 2 0 C2 0.66 2 1.32 2 2 C5.3 2 8.6 2 12 2 C12 3.32 12 4.64 12 6 C12.33 4.35 12.66 2.7 13 1 C18.92996109 8.31361868 18.92996109 8.31361868 19.3125 12.0625 C19.209375 13.031875 19.10625 14.00125 19 15 C15.61665674 17.25556218 14.44027069 17.25632982 10.47460938 17.2746582 C9.34333618 17.28419022 8.21206299 17.29372223 7.04650879 17.30354309 C5.21364319 17.30217598 5.21364319 17.30217598 3.34375 17.30078125 C2.0899353 17.30506638 0.83612061 17.3093515 -0.45568848 17.31376648 C-3.10878484 17.31951407 -5.76149267 17.32094009 -8.41455078 17.31567383 C-11.81438216 17.30987467 -15.21366955 17.32682194 -18.61341095 17.3500185 C-21.85685344 17.36828937 -25.10026528 17.36457083 -28.34375 17.36328125 C-29.5656604 17.372491 -30.7875708 17.38170074 -32.04650879 17.39118958 C-33.17778198 17.38496078 -34.30905518 17.37873199 -35.47460938 17.37231445 C-36.4714978 17.37294388 -37.46838623 17.3735733 -38.4954834 17.3742218 C-41 17 -41 17 -42.85705566 15.70329285 C-44 14 -44 14 -43.8125 10.375 C-43.544375 9.26125 -43.27625 8.1475 -43 7 C-42.34 6.67 -41.68 6.34 -41 6 C-40.67 7.32 -40.34 8.64 -40 10 C-40.66 10 -41.32 10 -42 10 C-42 11.32 -42 12.64 -42 14 C-28.8 13.67 -15.6 13.34 -2 13 C-1.34 8.71 -0.68 4.42 0 0 Z " fill="#012198" transform="translate(706,656)"/>
<path d="M0 0 C1.953125 0.7109375 1.953125 0.7109375 4 2 C4.609375 4.1640625 4.609375 4.1640625 4.75 6.625 C4.80671875 7.44226563 4.8634375 8.25953125 4.921875 9.1015625 C4.94765625 9.72804688 4.9734375 10.35453125 5 11 C4.34 11 3.68 11 3 11 C2.34 13.64 1.68 16.28 1 19 C0.34 19 -0.32 19 -1 19 C-1.103125 19.70125 -1.20625 20.4025 -1.3125 21.125 C-2.59990541 26.50869537 -4.88956788 30.314785 -9 34 C-8.34 34.33 -7.68 34.66 -7 35 C-7.66 35 -8.32 35 -9 35 C-9.309375 35.639375 -9.61875 36.27875 -9.9375 36.9375 C-11 39 -11 39 -12 40 C-12.103125 41.093125 -12.20625 42.18625 -12.3125 43.3125 C-13.07935013 47.42560524 -13.67310235 48.57226388 -17 51 C-18.03125 51.2475 -19.0625 51.495 -20.125 51.75 C-23.10766238 52.65872438 -23.10766238 52.65872438 -23.828125 54.8984375 C-24.32211604 56.90968674 -24.6702254 58.9553975 -25 61 C-25.66 61 -26.32 61 -27 61 C-27 63.64 -27 66.28 -27 69 C-27.763125 69.0825 -28.52625 69.165 -29.3125 69.25 C-32.52373261 70.14615794 -33.29374499 71.21611025 -35 74 C-35 69.46243738 -34.09798933 67.94749639 -31.8515625 64.08203125 C-31.52349609 63.51223038 -31.19542969 62.9424295 -30.85742188 62.35536194 C-29.78809836 60.50288275 -28.70671868 58.65776378 -27.625 56.8125 C-26.88387337 55.53378842 -26.14347926 54.25465199 -25.40380859 52.97509766 C-21.13300475 45.59988746 -16.80657 38.25717833 -12.46972656 30.9206543 C-9.38354885 25.68616425 -6.35804974 20.41893722 -3.375 15.125 C-2.93623535 14.35655762 -2.4974707 13.58811523 -2.04541016 12.79638672 C-1.44672119 11.72541748 -1.44672119 11.72541748 -0.8359375 10.6328125 C-0.48063965 10.00262207 -0.1253418 9.37243164 0.24072266 8.72314453 C1.58586191 5.67041371 0.8497781 3.08044562 0 0 Z " fill="#011365" transform="translate(639,513)"/>
<path d="M0 0 C-0.85937604 1.42619854 -1.73841381 2.84055529 -2.625 4.25 C-3.11226562 5.03890625 -3.59953125 5.8278125 -4.1015625 6.640625 C-7.22232478 10.51910322 -9.75749854 12.70235456 -14.72781372 13.36206055 C-18.15317134 13.49648838 -21.55659011 13.5016636 -24.984375 13.4609375 C-26.23631653 13.46002106 -27.48825806 13.45910461 -28.77813721 13.4581604 C-31.41791888 13.45212861 -34.05628763 13.43856583 -36.69580078 13.41162109 C-40.08100836 13.3775024 -43.46561942 13.36999706 -46.85097885 13.37151146 C-50.0830034 13.37083795 -53.31490243 13.35317517 -56.546875 13.3359375 C-57.76453552 13.33371185 -58.98219604 13.33148621 -60.23675537 13.32919312 C-61.35842102 13.31643341 -62.48008667 13.30367371 -63.63574219 13.29052734 C-64.62580261 13.28290375 -65.61586304 13.27528015 -66.63592529 13.26742554 C-69 13 -69 13 -71 11 C-70.79107816 7.72689117 -70.56305786 5.67566943 -68.4375 3.125 C-67.7259375 2.568125 -67.7259375 2.568125 -67 2 C-67 3.32 -67 4.64 -67 6 C-67.66 6 -68.32 6 -69 6 C-69 7.32 -69 8.64 -69 10 C-50.19 10 -31.38 10 -12 10 C-12 9.34 -12 8.68 -12 8 C-11.34 8 -10.68 8 -10 8 C-10 7.34 -10 6.68 -10 6 C-10.66 6 -11.32 6 -12 6 C-12 4.02 -12 2.04 -12 0 C-10.37585622 -0.19477739 -8.75063577 -0.38059458 -7.125 -0.5625 C-6.22007812 -0.66691406 -5.31515625 -0.77132812 -4.3828125 -0.87890625 C-2 -1 -2 -1 0 0 Z " fill="#092A8D" transform="translate(626,660)"/>
<path d="M0 0 C0.66 0.33 1.32 0.66 2 1 C1.62875 1.763125 1.2575 2.52625 0.875 3.3125 C0.58625 4.199375 0.2975 5.08625 0 6 C0.99 7.485 0.99 7.485 2 9 C2.99265031 10.73789018 3.97134516 12.48377555 4.94140625 14.234375 C5.52116211 15.27706543 6.10091797 16.31975586 6.69824219 17.39404297 C7.31344727 18.50150879 7.92865234 19.60897461 8.5625 20.75 C17.3694389 36.62127228 17.3694389 36.62127228 27 52 C27.1953125 54.26171875 27.1953125 54.26171875 27.125 56.6875 C27.10695313 57.49574219 27.08890625 58.30398438 27.0703125 59.13671875 C27.04710937 59.75160156 27.02390625 60.36648438 27 61 C26.01 60.67 25.02 60.34 24 60 C24 57.36 24 54.72 24 52 C23.34 52 22.68 52 22 52 C22 51.34 22 50.68 22 50 C21.34 50 20.68 50 20 50 C20 48.02 20 46.04 20 44 C18.68 44 17.36 44 16 44 C16 42.68 16 41.36 16 40 C15.34 40 14.68 40 14 40 C13.67 39.01 13.34 38.02 13 37 C12.01 37 11.02 37 10 37 C10 34.69 10 32.38 10 30 C9.34 30 8.68 30 8 30 C8 28.68 8 27.36 8 26 C6.68 26 5.36 26 4 26 C3.32332002 24.75539217 2.65905281 23.50403104 2 22.25 C1.62875 21.55390625 1.2575 20.8578125 0.875 20.140625 C0 18 0 18 0 14 C-1.65 14 -3.3 14 -5 14 C-5.33 13.34 -5.66 12.68 -6 12 C-4.68 12 -3.36 12 -2 12 C-2 8.7 -2 5.4 -2 2 C-1.34 2 -0.68 2 0 2 C0 1.34 0 0.68 0 0 Z " fill="#0B185C" transform="translate(648,514)"/>
<path d="M0 0 C2.90886781 2.55868043 4.51541215 5.46469016 6.36328125 8.84765625 C6.83497993 9.7046537 6.83497993 9.7046537 7.31620789 10.57896423 C8.31985449 12.40418127 9.31654282 14.23307757 10.3125 16.0625 C15.20147171 25.00333198 20.18459985 33.85502178 25.56103516 42.51416016 C29.04362853 48.17105801 29.04362853 48.17105801 28.8125 52.5625 C28.544375 53.366875 28.27625 54.17125 28 55 C27.34 55 26.68 55 26 55 C26 53.68 26 52.36 26 51 C25.34 51 24.68 51 24 51 C24 49.68 24 48.36 24 47 C22.68 46.34 21.36 45.68 20 45 C20 44.34 20 43.68 20 43 C19.34 43 18.68 43 18 43 C17.67 40.69 17.34 38.38 17 36 C16.67 36 16.34 36 16 36 C16 34.35 16 32.7 16 31 C14.68 31 13.36 31 12 31 C8 24.375 8 24.375 8 21 C7.34 21 6.68 21 6 21 C5.67 19.02 5.34 17.04 5 15 C3.35 14.67 1.7 14.34 0 14 C0.66 13.67 1.32 13.34 2 13 C2 11.68 2 10.36 2 9 C1.34 9 0.68 9 0 9 C0.33 8.01 0.66 7.02 1 6 C0.72428861 3.99124558 0.39764263 1.98821313 0 0 Z " fill="#1A1B2E" transform="translate(560,369)"/>
<path d="M0 0 C1.32 0.66 2.64 1.32 4 2 C3.43285278 2.99797607 3.43285278 2.99797607 2.85424805 4.01611328 C1.13041742 7.05151396 -0.59106092 10.08824243 -2.3125 13.125 C-2.90740234 14.17171875 -3.50230469 15.2184375 -4.11523438 16.296875 C-4.98051758 17.82441406 -4.98051758 17.82441406 -5.86328125 19.3828125 C-6.39219971 20.31496582 -6.92111816 21.24711914 -7.46606445 22.20751953 C-9.05629496 25.10248316 -10.54136833 28.03685571 -12 31 C-14.31 31 -16.62 31 -19 31 C-21.31 26.71 -23.62 22.42 -26 18 C-24.35 18.33 -22.7 18.66 -21 19 C-20.67 19.99 -20.34 20.98 -20 22 C-19.34 22 -18.68 22 -18 22 C-17.67 20.35 -17.34 18.7 -17 17 C-14.69 17.33 -12.38 17.66 -10 18 C-9.34 16.68 -8.68 15.36 -8 14 C-7.34 14 -6.68 14 -6 14 C-6 12.02 -6 10.04 -6 8 C-5.34 8 -4.68 8 -4 8 C-4 7.34 -4 6.68 -4 6 C-3.34 6 -2.68 6 -2 6 C-2 4.68 -2 3.36 -2 2 C-1.34 2 -0.68 2 0 2 C0 1.34 0 0.68 0 0 Z " fill="#132979" transform="translate(546,592)"/>
<path d="M0 0 C2 2 2 2 2 6 C2.66 6 3.32 6 4 6 C4 6.66 4 7.32 4 8 C21.82 8 39.64 8 58 8 C58.33 6.02 58.66 4.04 59 2 C61 4 61 4 61.1875 7.0625 C61 10 61 10 60 11 C58.13893777 11.09910327 56.2740989 11.12799259 54.41040039 11.12939453 C53.21568619 11.13254669 52.02097198 11.13569885 50.79005432 11.13894653 C49.48906296 11.1369223 48.18807159 11.13489807 46.84765625 11.1328125 C45.50866173 11.13348567 44.16966732 11.13445581 42.83067322 11.13571167 C40.02032308 11.13718853 37.21000466 11.13503483 34.3996582 11.13037109 C30.79359181 11.12467928 27.18759993 11.12794939 23.58153629 11.13394356 C20.81493059 11.13755419 18.0483426 11.13640817 15.28173637 11.13381577 C13.30412116 11.13282203 11.32650527 11.13586474 9.34889221 11.13894653 C8.15102585 11.13579437 6.95315948 11.13264221 5.71899414 11.12939453 C4.13133995 11.12820114 4.13133995 11.12820114 2.51161194 11.12698364 C0 11 0 11 -2 10 C-2.25 3.375 -2.25 3.375 0 0 Z " fill="#0D3186" transform="translate(444,662)"/>
<path d="M0 0 C0.66 0 1.32 0 2 0 C2 0.66 2 1.32 2 2 C3.65 2 5.3 2 7 2 C5.36502222 5.00780722 3.72545951 8.01309063 2.08349609 11.01708984 C1.29942765 12.45201637 0.51597772 13.88728093 -0.26708984 15.32275391 C-10.98582802 34.96039936 -10.98582802 34.96039936 -16 43 C-16.99 42.67 -17.98 42.34 -19 42 C-19 39.36 -19 36.72 -19 34 C-17.02 33.34 -15.04 32.68 -13 32 C-13 30.68 -13 29.36 -13 28 C-12.01 28 -11.02 28 -10 28 C-9.67 26.02 -9.34 24.04 -9 22 C-8.34 22 -7.68 22 -7 22 C-7 21.34 -7 20.68 -7 20 C-8.98 19.67 -10.96 19.34 -13 19 C-12.67 18.01 -12.34 17.02 -12 16 C-9.69 16 -7.38 16 -5 16 C-5 14.35 -5 12.7 -5 11 C-4.34 11 -3.68 11 -3 11 C-3 9.35 -3 7.7 -3 6 C-2.01 6 -1.02 6 0 6 C-0.185625 5.195625 -0.37125 4.39125 -0.5625 3.5625 C-0.706875 2.716875 -0.85125 1.87125 -1 1 C-0.67 0.67 -0.34 0.34 0 0 Z " fill="#031E6C" transform="translate(429,592)"/>
<path d="M0 0 C2 1 4 2 6 3 C6 3.66 6 4.32 6 5 C1.01770224 6.91626837 -3.72684667 7.5547115 -9 8 C-9.99 10.31 -10.98 12.62 -12 15 C-11.34 15 -10.68 15 -10 15 C-10 15.66 -10 16.32 -10 17 C-8.35 17.33 -6.7 17.66 -5 18 C-4.67 18.99 -4.34 19.98 -4 21 C-3.34 21 -2.68 21 -2 21 C-2 23.31 -2 25.62 -2 28 C-2.66 28 -3.32 28 -4 28 C-4 26.68 -4 25.36 -4 24 C-4.70511719 23.91105469 -5.41023437 23.82210938 -6.13671875 23.73046875 C-9.61044461 22.84426584 -11.88348378 21.37104554 -14.8125 19.3125 C-15.78832031 18.64863281 -16.76414062 17.98476563 -17.76953125 17.30078125 C-20 15 -20 15 -20.63671875 11.91796875 C-20 9 -20 9 -17.98046875 7.328125 C-16.99691406 6.88984375 -16.01335938 6.4515625 -15 6 C-14.41041504 5.73509766 -13.82083008 5.47019531 -13.21337891 5.19726562 C-11.26061275 4.34177757 -9.29215564 3.5410942 -7.3125 2.75 C-6.63638672 2.46898437 -5.96027344 2.18796875 -5.26367188 1.8984375 C-3.53307924 1.20275648 -1.76800179 0.59421598 0 0 Z " fill="#010426" transform="translate(642,401)"/>
<path d="M0 0 C0.66 1.32 1.32 2.64 2 4 C1.34 4 0.68 4 0 4 C0 5.32 0 6.64 0 8 C19.8 8 39.6 8 60 8 C60.33 7.34 60.66 6.68 61 6 C60.625 7.9375 60.625 7.9375 60 10 C57.40428195 11.29785903 55.49489827 11.14126772 52.58813477 11.16113281 C51.45678604 11.17074036 50.32543732 11.1803479 49.1598053 11.19024658 C47.93273361 11.19449646 46.70566193 11.19874634 45.44140625 11.203125 C44.18617661 11.20882507 42.93094696 11.21452515 41.63768005 11.22039795 C38.97871267 11.22985771 36.31985844 11.23674972 33.66088867 11.24023438 C30.25321817 11.24572275 26.84594653 11.26975869 23.43840122 11.29820633 C20.18943296 11.32130299 16.94044514 11.32328018 13.69140625 11.328125 C11.85383507 11.3466452 11.85383507 11.3466452 9.97914124 11.36553955 C8.84464035 11.36253845 7.71013947 11.35953735 6.54125977 11.35644531 C5.04140282 11.36191376 5.04140282 11.36191376 3.51124573 11.36749268 C1 11 1 11 -0.86195374 9.70428467 C-2 8 -2 8 -1.75 4.375 C-1 1 -1 1 0 0 Z " fill="#0A308D" transform="translate(664,662)"/>
<path d="M0 0 C0.66 0 1.32 0 2 0 C0.83024607 2.53446685 -0.47225558 4.68691721 -2.0625 7 C-3.6901836 9.52028428 -4.55341928 11.09722532 -5 14 C-5.66 14 -6.32 14 -7 14 C-6.979375 14.763125 -6.95875 15.52625 -6.9375 16.3125 C-7 19 -7 19 -8 22 C-8.66 22 -9.32 22 -10 22 C-10.268125 22.928125 -10.53625 23.85625 -10.8125 24.8125 C-11.99171887 27.9777717 -12.73191472 28.73191472 -15 31 C-15.45375 32.19625 -15.9075 33.3925 -16.375 34.625 C-16.91125 35.73875 -17.4475 36.8525 -18 38 C-20.5625 38.625 -20.5625 38.625 -23 39 C-24.24714403 41.40952023 -24.24714403 41.40952023 -25 44 C-25.66 44.66 -26.32 45.32 -27 46 C-27.495 44.515 -27.495 44.515 -28 43 C-26.65206209 40.35258936 -25.24992534 37.89203703 -23.6875 35.375 C-22.76238754 33.85194699 -21.83792816 32.32849713 -20.9140625 30.8046875 C-20.43356445 30.01803711 -19.95306641 29.23138672 -19.45800781 28.42089844 C-18.00636357 26.01056617 -16.60190693 23.5785922 -15.2109375 21.1328125 C-14.76661377 20.35631348 -14.32229004 19.57981445 -13.86450195 18.77978516 C-13.00810671 17.28025042 -12.15750553 15.77738919 -11.31323242 14.27099609 C-8.33604797 9.11201599 -8.33604797 9.11201599 -5 8 C-3.62322215 6.13692349 -3.62322215 6.13692349 -2.4375 3.9375 C-1.18359375 1.71484375 -1.18359375 1.71484375 0 0 Z " fill="#010731" transform="translate(470,426)"/>
<path d="M0 0 C1.125 3.75 1.125 3.75 0 6 C0.66 6 1.32 6 2 6 C2 5.34 2 4.68 2 4 C2.99 4.33 3.98 4.66 5 5 C4.57847656 5.39832031 4.15695312 5.79664063 3.72265625 6.20703125 C3.17480469 6.73683594 2.62695312 7.26664063 2.0625 7.8125 C1.24458984 8.59560547 1.24458984 8.59560547 0.41015625 9.39453125 C-1.23519092 11.05812198 -1.23519092 11.05812198 -2 14 C-2.66 14 -3.32 14 -4 14 C-3.814375 14.78375 -3.62875 15.5675 -3.4375 16.375 C-3 19 -3 19 -4 21 C-4.99 21 -5.98 21 -7 21 C-7.99 23.97 -8.98 26.94 -10 30 C-10.66 30 -11.32 30 -12 30 C-12 31.32 -12 32.64 -12 34 C-12.66 34 -13.32 34 -14 34 C-14.33 34.99 -14.66 35.98 -15 37 C-16.65 36.67 -18.3 36.34 -20 36 C-18.63981742 32.40075386 -17.03292649 29.10798559 -15.13671875 25.76171875 C-14.57919922 24.77623047 -14.02167969 23.79074219 -13.44726562 22.77539062 C-12.86654297 21.75638672 -12.28582031 20.73738281 -11.6875 19.6875 C-11.11837891 18.68009766 -10.54925781 17.67269531 -9.96289062 16.63476562 C-6.76752929 11.00344571 -3.47782732 5.46142865 0 0 Z " fill="#021B7D" transform="translate(370,594)"/>
<path d="M0 0 C0.66 0 1.32 0 2 0 C2 0.66 2 1.32 2 2 C2.99 1.67 3.98 1.34 5 1 C6.73053538 3.97837354 8.45916828 6.95784724 10.1875 9.9375 C10.67025391 10.76830078 11.15300781 11.59910156 11.65039062 12.45507812 C14.82851138 17.93680319 17.94331821 23.44964314 21 29 C21.66 29 22.32 29 23 29 C23.125 33.75 23.125 33.75 22 36 C20.68 35.67 19.36 35.34 18 35 C18 33.35 18 31.7 18 30 C17.34 30 16.68 30 16 30 C16 29.34 16 28.68 16 28 C15.34 27.67 14.68 27.34 14 27 C14 25.35 14 23.7 14 22 C13.38125 21.690625 12.7625 21.38125 12.125 21.0625 C10.75 20.375 9.375 19.6875 8 19 C8 17.35 8 15.7 8 14 C7.34 14 6.68 14 6 14 C6 13.34 6 12.68 6 12 C5.34 12 4.68 12 4 12 C4 10.02 4 8.04 4 6 C2.68 5.34 1.36 4.68 0 4 C0 2.68 0 1.36 0 0 Z " fill="#080C31" transform="translate(594,434)"/>
<path d="M0 0 C3.0265505 0.45116281 3.85699642 1.22910609 5.89453125 3.59375 C11.3561005 11.86952907 11.3561005 11.86952907 10.875 17.25 C10.545 16.59 10.215 15.93 9.875 15.25 C7.34766765 14.59444881 7.34766765 14.59444881 4.875 14.25 C5.205 12.6 5.535 10.95 5.875 9.25 C4.885 9.58 3.895 9.91 2.875 10.25 C2.545 8.6 2.215 6.95 1.875 5.25 C-1.39588902 5.97742507 -1.39588902 5.97742507 -2.875 9.1875 C-3.2875 10.198125 -3.7 11.20875 -4.125 12.25 C-3.795 12.91 -3.465 13.57 -3.125 14.25 C-3.723125 14.270625 -4.32125 14.29125 -4.9375 14.3125 C-8.41467676 15.80271861 -8.76164581 18.87125266 -10.125 22.25 C-11.115 22.91 -12.105 23.57 -13.125 24.25 C-14.27624804 20.79625589 -13.76247299 19.75718443 -12.2890625 16.5625 C-4.11767812 0.32941425 -4.11767812 0.32941425 0 0 Z " fill="#15151D" transform="translate(530.125,321.75)"/>
<path d="M0 0 C3.71325689 7.42651379 0.56270504 20.12859682 -1 28 C-1.66 28.99 -2.32 29.98 -3 31 C-4.01286753 22.30019136 -4.10621544 13.74507107 -4 5 C-4.9075 5.495 -5.815 5.99 -6.75 6.5 C-10 8 -10 8 -14 8 C-14.33 7.01 -14.66 6.02 -15 5 C-9.83783423 1.24569762 -6.43985624 -0.67081836 0 0 Z " fill="#0B0E25" transform="translate(708,376)"/>
<path d="M0 0 C0.33 0 0.66 0 1 0 C1 3.3 1 6.6 1 10 C0.34 10 -0.32 10 -1 10 C-1.103125 10.9075 -1.20625 11.815 -1.3125 12.75 C-2.00649813 16.03071844 -2.70085668 17.60889095 -5 20 C-5.66 20 -6.32 20 -7 20 C-7 20.66 -7 21.32 -7 22 C-7.99 22 -8.98 22 -10 22 C-10.103125 22.928125 -10.20625 23.85625 -10.3125 24.8125 C-11.03244329 28.1504189 -11.54453438 28.85146758 -14 31 C-14.495 32.485 -14.495 32.485 -15 34 C-17.0625 34.6875 -17.0625 34.6875 -19 35 C-17.7067646 31.54730548 -16.19600086 28.50324869 -14.25 25.375 C-11.50864582 20.8861159 -8.95547171 16.32303072 -6.45703125 11.6953125 C-4.33921798 7.77764185 -2.17009268 3.88888289 0 0 Z " fill="#060D3B" transform="translate(439,474)"/>
<path d="M0 0 C0.99 0.33 1.98 0.66 3 1 C2.58537288 11.67664843 2.58537288 11.67664843 -2 16 C-4.25 17.8125 -4.25 17.8125 -6 19 C-5.835 19.598125 -5.67 20.19625 -5.5 20.8125 C-5 23 -5 23 -5 26 C-6.98 26 -8.96 26 -11 26 C-11.83002492 19.04854126 -9.09253459 14.8661646 -5.5 9.0625 C-4.97535156 8.18787109 -4.45070313 7.31324219 -3.91015625 6.41210938 C-2.62020127 4.26609336 -1.31679941 2.12961103 0 0 Z " fill="#0E2A86" transform="translate(349,630)"/>
<path d="M0 0 C3.72284716 4.31294881 6.43266709 8.98203698 9.1875 13.9375 C9.86329102 15.11602539 9.86329102 15.11602539 10.55273438 16.31835938 C12.91595939 20.55232323 14.59675959 24.07414168 15 29 C14.34 29 13.68 29 13 29 C13 27.68 13 26.36 13 25 C10.36 25 7.72 25 5 25 C5 23.68 5 22.36 5 21 C5.66 21 6.32 21 7 21 C7 19.68 7 18.36 7 17 C6.34 17 5.68 17 5 17 C5 16.34 5 15.68 5 15 C3.68 14.34 2.36 13.68 1 13 C1.66 11.02 2.32 9.04 3 7 C2.34 7 1.68 7 1 7 C0.67 4.69 0.34 2.38 0 0 Z " fill="#022086" transform="translate(705,633)"/>
<path d="M0 0 C1.32 0 2.64 0 4 0 C5.4606285 2.64738916 6 3.89448334 6 7 C6.66 7 7.32 7 8 7 C10.60018816 10.90028225 10.15085514 14.47434569 10 19 C10.66 19 11.32 19 12 19 C12 19.99 12 20.98 12 22 C12.66 22 13.32 22 14 22 C13.67 23.65 13.34 25.3 13 27 C9.31904088 22.70841448 6.56257379 18.06453565 3.75 13.1875 C3.29109375 12.39923828 2.8321875 11.61097656 2.359375 10.79882812 C1.23595614 8.86795196 0.11628756 6.93500474 -1 5 C-0.34 4.67 0.32 4.34 1 4 C0.67 2.68 0.34 1.36 0 0 Z " fill="#0E1133" transform="translate(534,432)"/>
<path d="M0 0 C1.953125 0.7109375 1.953125 0.7109375 4 2 C4.609375 4.1640625 4.609375 4.1640625 4.75 6.625 C4.80671875 7.44226563 4.8634375 8.25953125 4.921875 9.1015625 C4.96054687 10.04128906 4.96054687 10.04128906 5 11 C4.34 11 3.68 11 3 11 C2.34 13.64 1.68 16.28 1 19 C0.34 19 -0.32 19 -1 19 C-1 19.66 -1 20.32 -1 21 C-1.66 21 -2.32 21 -3 21 C-3 21.66 -3 22.32 -3 23 C-3.66 23 -4.32 23 -5 23 C-5 24.32 -5 25.64 -5 27 C-5.66 27 -6.32 27 -7 27 C-7 27.66 -7 28.32 -7 29 C-7.66 29 -8.32 29 -9 29 C-9.33 29.66 -9.66 30.32 -10 31 C-9.55026205 25.05771774 -6.89413815 20.82699084 -3.9375 15.8125 C-3.0033531 14.21820563 -2.07469914 12.62067631 -1.15234375 11.01953125 C-0.73976318 10.31932861 -0.32718262 9.61912598 0.09790039 8.89770508 C1.58945469 5.75999153 0.88501241 3.20816999 0 0 Z " fill="#010D49" transform="translate(639,513)"/>
<path d="M0 0 C0.33 0 0.66 0 1 0 C1 1.65 1 3.3 1 5 C1.66 5.33 2.32 5.66 3 6 C2.360625 6.928125 1.72125 7.85625 1.0625 8.8125 C-1.08622093 11.84219943 -1.08622093 11.84219943 -2 15 C-2.66 15 -3.32 15 -4 15 C-3.938125 16.1446875 -3.938125 16.1446875 -3.875 17.3125 C-4 20 -4 20 -6 23 C-8.625 23.6875 -8.625 23.6875 -11 24 C-11 19.86401054 -10.54964594 18.70164508 -8.59375 15.234375 C-7.84931641 13.90019531 -7.84931641 13.90019531 -7.08984375 12.5390625 C-6.56519531 11.61867188 -6.04054688 10.69828125 -5.5 9.75 C-4.71302734 8.34621094 -4.71302734 8.34621094 -3.91015625 6.9140625 C-2.61426261 4.60501566 -1.31068601 2.30067226 0 0 Z " fill="#101E6E" transform="translate(384,569)"/>
<path d="M0 0 C1 3.875 1 3.875 1 5 C1.99 5.33 2.98 5.66 4 6 C3.401875 6.515625 2.80375 7.03125 2.1875 7.5625 C-0.24231406 9.98234565 -0.24231406 9.98234565 -1.4375 13.6875 C-1.953125 14.780625 -2.46875 15.87375 -3 17 C-5.5625 17.625 -5.5625 17.625 -8 18 C-9.24714403 20.40952023 -9.24714403 20.40952023 -10 23 C-10.66 23.66 -11.32 24.32 -12 25 C-13 22 -13 22 -12.24316406 20.17822266 C-11.63553223 19.18121338 -11.63553223 19.18121338 -11.015625 18.1640625 C-10.57476562 17.42929687 -10.13390625 16.69453125 -9.6796875 15.9375 C-9.20789063 15.174375 -8.73609375 14.41125 -8.25 13.625 C-7.79367187 12.86960937 -7.33734375 12.11421875 -6.8671875 11.3359375 C-5.58649392 9.21872152 -4.29389874 7.10916013 -3 5 C-1.99811171 3.33446776 -0.99706591 1.66842361 0 0 Z " fill="#15183D" transform="translate(455,447)"/>
<path d="M0 0 C0.66 0.66 1.32 1.32 2 2 C-0.25276168 6.01044021 -2.53010097 10.00636387 -4.8125 14 C-5.77639648 15.71703125 -5.77639648 15.71703125 -6.75976562 17.46875 C-7.38173828 18.5515625 -8.00371094 19.634375 -8.64453125 20.75 C-9.21534424 21.75546875 -9.78615723 22.7609375 -10.37426758 23.796875 C-11.17900513 24.88742187 -11.17900513 24.88742187 -12 26 C-12.99 26 -13.98 26 -15 26 C-15 25.01 -15 24.02 -15 23 C-14.34 23 -13.68 23 -13 23 C-13 21.02 -13 19.04 -13 17 C-12.34 17 -11.68 17 -11 17 C-10.34 15.68 -9.68 14.36 -9 13 C-8.34 13 -7.68 13 -7 13 C-7 11.68 -7 10.36 -7 9 C-6.34 9 -5.68 9 -5 9 C-5 7.68 -5 6.36 -5 5 C-4.34 5 -3.68 5 -3 5 C-3 3.68 -3 2.36 -3 1 C-2.01 0.67 -1.02 0.34 0 0 Z " fill="#0F266C" transform="translate(665,587)"/>
<path d="M0 0 C2.105184 3.157776 2.25289344 3.95397134 2.1875 7.5625 C2.17783203 8.74005859 2.17783203 8.74005859 2.16796875 9.94140625 C2 12 2 12 1 14 C1.66 14 2.32 14 3 14 C2.88623383 16.12563103 2.75864369 18.2505261 2.625 20.375 C2.55539062 21.55835938 2.48578125 22.74171875 2.4140625 23.9609375 C2 27 2 27 0 29 C-3.5625 28.75 -3.5625 28.75 -7 28 C-7.33 27.34 -7.66 26.68 -8 26 C-5.69 26 -3.38 26 -1 26 C-1 24.94039063 -1 23.88078125 -1 22.7890625 C-1 18.19270833 -1 13.59635417 -1 9 C-1.01160156 8.36964844 -1.02320313 7.73929687 -1.03515625 7.08984375 C-1.06094341 5.0600258 -1.03221787 3.02972606 -1 1 C-0.67 0.67 -0.34 0.34 0 0 Z " fill="#141A3E" transform="translate(697,440)"/>
<path d="M0 0 C0.66 1.32 1.32 2.64 2 4 C1.34 4 0.68 4 0 4 C0 5.32 0 6.64 0 8 C19.14 8 38.28 8 58 8 C58 8.33 58 8.66 58 9 C57.3596431 9.01030746 56.71928619 9.02061493 56.05952454 9.03123474 C49.39220275 9.13944973 42.72501201 9.25403552 36.05786133 9.37231445 C33.5699335 9.4156152 31.08197689 9.45729372 28.59399414 9.49731445 C25.01700161 9.55513453 21.44015333 9.61879551 17.86328125 9.68359375 C16.19583611 9.70866249 16.19583611 9.70866249 14.4947052 9.73423767 C13.45400375 9.75418289 12.41330231 9.77412811 11.34106445 9.79467773 C10.4283931 9.81022202 9.51572174 9.8257663 8.57539368 9.84178162 C5.95876729 9.93928052 5.95876729 9.93928052 3.28337097 10.57533264 C1 11 1 11 -0.875 10 C-2.63504746 6.87102675 -1.75419157 4.39386206 -1 1 C-0.67 0.67 -0.34 0.34 0 0 Z " fill="#0F3679" transform="translate(664,662)"/>
<path d="M0 0 C2.29013653 3.4352048 2.17842973 4.985331 2 9 C1.34 9 0.68 9 0 9 C0 9.66 0 10.32 0 11 C-0.66 11 -1.32 11 -2 11 C-1.938125 11.94875 -1.87625 12.8975 -1.8125 13.875 C-1.874375 14.90625 -1.93625 15.9375 -2 17 C-5.22791555 19.1519437 -6.28400809 19.20086443 -10 19 C-9.54821859 14.03040451 -8.49990973 12.40269001 -5 9 C-3.20455862 6.0671057 -1.58946578 3.04864748 0 0 Z " fill="#10184F" transform="translate(538,499)"/>
<path d="M0 0 C1 4 1 4 0 6 C0.66 6 1.32 6 2 6 C2 5.34 2 4.68 2 4 C2.99 4.33 3.98 4.66 5 5 C4.57847656 5.39832031 4.15695312 5.79664063 3.72265625 6.20703125 C3.17480469 6.73683594 2.62695312 7.26664063 2.0625 7.8125 C1.51722656 8.33457031 0.97195313 8.85664062 0.41015625 9.39453125 C-1.23519092 11.05812198 -1.23519092 11.05812198 -2 14 C-3.32 14 -4.64 14 -6 14 C-6 15.32 -6 16.64 -6 18 C-7.4375 19.625 -7.4375 19.625 -9 21 C-9.33 21.66 -9.66 22.32 -10 23 C-10.99 22.67 -11.98 22.34 -13 22 C-8.71 14.74 -4.42 7.48 0 0 Z " fill="#0F2175" transform="translate(370,594)"/>
<path d="M0 0 C0.33 0.66 0.66 1.32 1 2 C1.66 2.33 2.32 2.66 3 3 C0.88693047 6.67366775 -1.24237995 10.33765249 -3.375 14 C-4.27992188 15.57394531 -4.27992188 15.57394531 -5.203125 17.1796875 C-5.78320312 18.17226563 -6.36328125 19.16484375 -6.9609375 20.1875 C-7.76217041 21.57001953 -7.76217041 21.57001953 -8.57958984 22.98046875 C-9.0483252 23.64691406 -9.51706055 24.31335938 -10 25 C-10.66 25 -11.32 25 -12 25 C-12 24.01 -12 23.02 -12 22 C-11.34 22 -10.68 22 -10 22 C-10 20.02 -10 18.04 -10 16 C-9.34 16 -8.68 16 -8 16 C-8 14.68 -8 13.36 -8 12 C-7.34 12 -6.68 12 -6 12 C-6 10.68 -6 9.36 -6 8 C-5.34 8 -4.68 8 -4 8 C-4 7.34 -4 6.68 -4 6 C-3.34 6 -2.68 6 -2 6 C-2 5.34 -2 4.68 -2 4 C-1.34 4 -0.68 4 0 4 C0 2.68 0 1.36 0 0 Z " fill="#0E2779" transform="translate(642,624)"/>
<path d="M0 0 C1.32 0.66 2.64 1.32 4 2 C0.7 7.61 -2.6 13.22 -6 19 C-6.99 18.67 -7.98 18.34 -9 18 C-9 15.36 -9 12.72 -9 10 C-7.02 9.34 -5.04 8.68 -3 8 C-3 6.68 -3 5.36 -3 4 C-2.01 4 -1.02 4 0 4 C0 2.68 0 1.36 0 0 Z " fill="#152F7F" transform="translate(419,616)"/>
<path d="M0 0 C4.17087411 1.39029137 5.18208698 4.27843718 7.1875 7.9375 C7.55552734 8.58396484 7.92355469 9.23042969 8.30273438 9.89648438 C11 14.71553224 11 14.71553224 11 17 C10.01 16.67 9.02 16.34 8 16 C8 15.34 8 14.68 8 14 C7.34 14 6.68 14 6 14 C6 12.68 6 11.36 6 10 C3.36 10.66 0.72 11.32 -2 12 C-2.21278058 7.53160785 -1.59138085 4.17737474 0 0 Z " fill="#011E84" transform="translate(482,630)"/>
<path d="M0 0 C0.66 0.99 1.32 1.98 2 3 C1.67 3.33 1.34 3.66 1 4 C0.63239269 6.32817964 0.29758419 8.6618385 0 11 C-0.66 11 -1.32 11 -2 11 C-2 11.66 -2 12.32 -2 13 C-2.66 13 -3.32 13 -4 13 C-3.938125 14.1446875 -3.938125 14.1446875 -3.875 15.3125 C-4 18 -4 18 -6 21 C-9.125 22.1875 -9.125 22.1875 -12 23 C-10.2010497 17.92365174 -7.50973545 13.36286389 -4.875 8.6875 C-4.40707031 7.85154297 -3.93914063 7.01558594 -3.45703125 6.15429688 C-2.3073741 4.10133767 -1.15496198 2.04997798 0 0 Z " fill="#151A42" transform="translate(552,475)"/>
<path d="M0 0 C1.32 0 2.64 0 4 0 C4.33 0.66 4.66 1.32 5 2 C5.99 1.34 6.98 0.68 8 0 C6.78310457 4.02511566 5.50546238 7.59257117 3 11 C2.01 11 1.02 11 0 11 C-0.33 11.99 -0.66 12.98 -1 14 C-1.66 14 -2.32 14 -3 14 C-3.20606757 10.29078371 -2.72384825 8.24489083 -1 5 C-0.62331656 3.34259285 -0.27942455 1.67654729 0 0 Z " fill="#082883" transform="translate(403,636)"/>
<path d="M0 0 C2 3 2 3 2 5 C1.34 5 0.68 5 0 5 C0 7.64 0 10.28 0 13 C-1.32 13 -2.64 13 -4 13 C-4 14.32 -4 15.64 -4 17 C-4.66 17 -5.32 17 -6 17 C-6 18.32 -6 19.64 -6 21 C-6.66 21 -7.32 21 -8 21 C-8 21.66 -8 22.32 -8 23 C-8.66 22.67 -9.32 22.34 -10 22 C-9.5097542 16.34880296 -7.25848055 12.40295481 -4.4375 7.625 C-4.01275391 6.88894531 -3.58800781 6.15289063 -3.15039062 5.39453125 C-2.10843859 3.59160301 -1.05533146 1.79512947 0 0 Z " fill="#193084" transform="translate(684,627)"/>
<path d="M0 0 C0.96862277 3.37934846 0.92663319 4.97608033 -0.4375 8.25 C-0.72496094 8.95640625 -1.01242187 9.6628125 -1.30859375 10.390625 C-1.53675781 10.92171875 -1.76492188 11.4528125 -2 12 C-2.66 12 -3.32 12 -4 12 C-4 14.64 -4 17.28 -4 20 C-4.763125 20.0825 -5.52625 20.165 -6.3125 20.25 C-9.52373261 21.14615794 -10.29374499 22.21611025 -12 25 C-12 20.74862814 -11.45382193 19.56694579 -9.375 16.015625 C-8.83359375 15.08105469 -8.2921875 14.14648438 -7.734375 13.18359375 C-6.87585938 11.73146484 -6.87585938 11.73146484 -6 10.25 C-5.14148438 8.77466797 -5.14148438 8.77466797 -4.265625 7.26953125 C-2.85138434 4.84175145 -1.42930941 2.41892878 0 0 Z " fill="#0F1D63" transform="translate(616,562)"/>
<path d="M0 0 C1.65 0 3.3 0 5 0 C4.3503125 0.556875 4.3503125 0.556875 3.6875 1.125 C1.51015656 3.54427049 0.27054248 6.01422518 -1 9 C-0.67 9.66 -0.34 10.32 0 11 C-0.598125 11.020625 -1.19625 11.04125 -1.8125 11.0625 C-5.28967676 12.55271861 -5.63664581 15.62125266 -7 19 C-7.99 19.66 -8.98 20.32 -10 21 C-11.4036827 16.78895189 -9.85924949 14.92508225 -8 11 C-7.5359375 9.8553125 -7.5359375 9.8553125 -7.0625 8.6875 C-6 7 -6 7 -4 6.0625 C-1.25013332 4.60163333 -0.91166696 2.88694538 0 0 Z " fill="#0E0F1A" transform="translate(527,325)"/>
<path d="M0 0 C0.33 0 0.66 0 1 0 C0.67 2.64 0.34 5.28 0 8 C-0.66 8 -1.32 8 -2 8 C-1.896875 8.9075 -1.79375 9.815 -1.6875 10.75 C-2 14 -2 14 -4.25 15.9375 C-5.1575 16.618125 -6.065 17.29875 -7 18 C-8.53511701 20.26098703 -9.73697099 22.56749968 -11 25 C-11.99 24.67 -12.98 24.34 -14 24 C-12.02922123 20.57928301 -10.05364261 17.16139141 -8.07348633 13.74609375 C-7.3999445 12.58280683 -6.7277413 11.41874382 -6.05688477 10.25390625 C-5.09479797 8.58392239 -4.12755929 6.91690985 -3.16015625 5.25 C-2.57886963 4.24453125 -1.99758301 3.2390625 -1.39868164 2.203125 C-0.9371167 1.47609375 -0.47555176 0.7490625 0 0 Z " fill="#18182E" transform="translate(476,410)"/>
<path d="M0 0 C-1.32 0.33 -2.64 0.66 -4 1 C-4 1.66 -4 2.32 -4 3 C-6.56699653 6.85049479 -10.75378291 7.09506849 -15 8 C-15 8.66 -15 9.32 -15 10 C-19.62 10.33 -24.24 10.66 -29 11 C-24.31909457 7.87939638 -19.1150742 5.97908793 -13.9375 3.8125 C-12.82310547 3.33619141 -11.70871094 2.85988281 -10.56054688 2.36914062 C-9.49771484 1.92376953 -8.43488281 1.47839844 -7.33984375 1.01953125 C-6.36394287 0.60807861 -5.38804199 0.19662598 -4.38256836 -0.22729492 C-2 -1 -2 -1 0 0 Z " fill="#1E1F2E" transform="translate(673,390)"/>
<path d="M0 0 C2.475 0.495 2.475 0.495 5 1 C5.33 2.65 5.66 4.3 6 6 C6.66 6 7.32 6 8 6 C8 7.32 8 8.64 8 10 C9.32 10 10.64 10 12 10 C12 8.68 12 7.36 12 6 C13.32 5.67 14.64 5.34 16 5 C15.125 11.875 15.125 11.875 14 13 C11.69 13 9.38 13 7 13 C4.69 8.71 2.38 4.42 0 0 Z " fill="#162D74" transform="translate(520,610)"/>
<path d="M0 0 C3.68006822 3.38168431 5.9785845 6.42521756 8 11 C8.66 11 9.32 11 10 11 C10.125 15.75 10.125 15.75 9 18 C7.68 17.67 6.36 17.34 5 17 C5 15.35 5 13.7 5 12 C4.34 12 3.68 12 3 12 C3 11.34 3 10.68 3 10 C2.34 9.67 1.68 9.34 1 9 C0.5859375 6.93359375 0.5859375 6.93359375 0.375 4.4375 C0.30023437 3.61121094 0.22546875 2.78492188 0.1484375 1.93359375 C0.09945312 1.29550781 0.05046875 0.65742188 0 0 Z " fill="#15183E" transform="translate(607,452)"/>
<path d="M0 0 C0.90883186 5.75593513 -1.60487139 9.29493431 -4.4921875 14.0234375 C-4.98976563 14.67570312 -5.48734375 15.32796875 -6 16 C-6.66 16 -7.32 16 -8 16 C-8.33 16.66 -8.66 17.32 -9 18 C-9.33 15.36 -9.66 12.72 -10 10 C-9.01 10.33 -8.02 10.66 -7 11 C-7 9.68 -7 8.36 -7 7 C-6.34 7 -5.68 7 -5 7 C-5 5.68 -5 4.36 -5 3 C-4.34 3 -3.68 3 -3 3 C-3 2.34 -3 1.68 -3 1 C-1 0 -1 0 0 0 Z " fill="#050728" transform="translate(527,431)"/>
<path d="M0 0 C2 1 4 2 6 3 C6 3.66 6 4.32 6 5 C1.29538677 6.86132673 -2.8757696 7.2509496 -7.875 7.125 C-8.56335938 7.11597656 -9.25171875 7.10695313 -9.9609375 7.09765625 C-11.64077838 7.07432513 -13.32043746 7.03846326 -15 7 C-12.0356239 5.02374927 -9.21212254 3.70113094 -5.9375 2.3125 C-4.87402344 1.85488281 -3.81054688 1.39726562 -2.71484375 0.92578125 C-1.81894531 0.62027344 -0.92304687 0.31476563 0 0 Z " fill="#0D0F2B" transform="translate(642,401)"/>
<path d="M0 0 C0.33 1.32 0.66 2.64 1 4 C0.34 4 -0.32 4 -1 4 C-1 5.32 -1 6.64 -1 8 C14.84 8 30.68 8 47 8 C47 8.33 47 8.66 47 9 C31.82 9 16.64 9 1 9 C1 9.66 1 10.32 1 11 C-0.32 10.34 -1.64 9.68 -3 9 C-2.5020163 5.26512223 -2.12508244 3.18762365 0 0 Z " fill="#052D80" transform="translate(558,662)"/>
<path d="M0 0 C-4.95 8.91 -4.95 8.91 -10 18 C-11.15837573 14.52487282 -10.77265943 12.86329714 -10.0625 9.3125 C-9.86785156 8.31863281 -9.67320312 7.32476562 -9.47265625 6.30078125 C-9.31667969 5.54152344 -9.16070312 4.78226562 -9 4 C-8.34 4 -7.68 4 -7 4 C-7 2.68 -7 1.36 -7 0 C-2.25 -1.125 -2.25 -1.125 0 0 Z " fill="#232547" transform="translate(521,448)"/>
<path d="M0 0 C0.66 0 1.32 0 2 0 C1.45156876 3.83901868 -0.2765265 5.36163505 -3 8 C-3.33 8.99 -3.66 9.98 -4 11 C-4.66 11 -5.32 11 -6 11 C-5.67 11.99 -5.34 12.98 -5 14 C-6.36182297 17.17758693 -7.54859213 19.54859213 -10 22 C-10 19.69 -10 17.38 -10 15 C-9.34 15 -8.68 15 -8 15 C-7.94392578 13.96939453 -7.94392578 13.96939453 -7.88671875 12.91796875 C-7.78810547 11.56638672 -7.78810547 11.56638672 -7.6875 10.1875 C-7.62949219 9.29417969 -7.57148438 8.40085937 -7.51171875 7.48046875 C-6.93311811 4.67580154 -6.29976485 3.66845685 -4 2 C-1.8125 2.3125 -1.8125 2.3125 0 3 C0 2.01 0 1.02 0 0 Z " fill="#060926" transform="translate(484,403)"/>
<path d="M0 0 C0.33 0 0.66 0 1 0 C1.1775282 3.01797946 0.99611394 5.01051522 -0.0625 7.875 C-1.18276602 11.60922008 -0.75701887 14.21490564 0 18 C-1.32 18 -2.64 18 -4 18 C-4 17.34 -4 16.68 -4 16 C-4.66 16 -5.32 16 -6 16 C-6.66 16.99 -7.32 17.98 -8 19 C-7.83276254 11.64155179 -4.01868672 5.99848092 0 0 Z " fill="#0D2A91" transform="translate(336,652)"/>
<path d="M0 0 C5.00052966 5.76984192 10.40000568 12.19819889 10.375 20.125 C10.25125 21.40375 10.1275 22.6825 10 24 C9.01 23.67 8.02 23.34 7 23 C7 20.36 7 17.72 7 15 C6.34 15 5.68 15 5 15 C5 14.34 5 13.68 5 13 C4.34 13 3.68 13 3 13 C3 11.02 3 9.04 3 7 C2.34 7 1.68 7 1 7 C0.67 4.69 0.34 2.38 0 0 Z " fill="#1B2961" transform="translate(665,551)"/>
<path d="M0 0 C0.66 0.33 1.32 0.66 2 1 C1.62875 1.763125 1.2575 2.52625 0.875 3.3125 C0.58625 4.199375 0.2975 5.08625 0 6 C0.99 7.485 0.99 7.485 2 9 C2.95895668 13.01018249 3.05530466 16.01329349 2 20 C1.34 19.34 0.68 18.68 0 18 C0 16.68 0 15.36 0 14 C-1.65 14 -3.3 14 -5 14 C-5.33 13.34 -5.66 12.68 -6 12 C-4.68 12 -3.36 12 -2 12 C-2 8.7 -2 5.4 -2 2 C-1.34 2 -0.68 2 0 2 C0 1.34 0 0.68 0 0 Z " fill="#000D51" transform="translate(648,514)"/>
<path d="M0 0 C0.66 0.33 1.32 0.66 2 1 C1 4 1 4 -2 6 C-3.12101483 8.48498726 -3.96214204 11.00993265 -4.83984375 13.58984375 C-6.15178262 16.31531945 -7.47212311 17.40094635 -10 19 C-9.53998088 16.85324409 -9.03717273 15.06969887 -8 13.125 C-6.83399468 10.93247008 -6.83399468 10.93247008 -6.625 8 C-5.88436512 4.44495256 -4.77097851 3.26716424 -2 1 C-1.34 0.67 -0.68 0.34 0 0 Z " fill="#0D0E1D" transform="translate(515,348)"/>
<path d="M0 0 C0.99 0.33 1.98 0.66 3 1 C1.73513885 3.27434653 0.46345297 5.54438745 -0.8125 7.8125 C-1.16892578 8.45509766 -1.52535156 9.09769531 -1.89257812 9.75976562 C-3.6465286 12.86538435 -5.25964807 15.67459095 -8 18 C-8 15.69 -8 13.38 -8 11 C-7.34 11 -6.68 11 -6 11 C-6 8.69 -6 6.38 -6 4 C-5.34 3.67 -4.68 3.34 -4 3 C-4 3.99 -4 4.98 -4 6 C-3.34 6 -2.68 6 -2 6 C-1.855625 5.38125 -1.71125 4.7625 -1.5625 4.125 C-1 2 -1 2 0 0 Z " fill="#14225C" transform="translate(466,537)"/>
<path d="M0 0 C2 2 2 2 2.9375 4.375 C3.99170758 6.97951284 5.31473557 8.77851507 7 11 C7 11.66 7 12.32 7 13 C7.99 12.67 8.98 12.34 10 12 C11.125 17.75 11.125 17.75 10 20 C9.34 20 8.68 20 8 20 C8 18.68 8 17.36 8 16 C7.34 16 6.68 16 6 16 C6 14.68 6 13.36 6 12 C4.68 11.34 3.36 10.68 2 10 C2 9.34 2 8.68 2 8 C1.34 8 0.68 8 0 8 C0 5.36 0 2.72 0 0 Z " fill="#010425" transform="translate(578,404)"/>
<path d="M0 0 C0.66 0.99 1.32 1.98 2 3 C1.01 4.98 0.02 6.96 -1 9 C-1.66 9 -2.32 9 -3 9 C-3 10.98 -3 12.96 -3 15 C-3.66 15 -4.32 15 -5 15 C-5 15.66 -5 16.32 -5 17 C-5.66 17 -6.32 17 -7 17 C-7.33 17.66 -7.66 18.32 -8 19 C-8.66 18.34 -9.32 17.68 -10 17 C-9.52949219 16.27554688 -9.05898438 15.55109375 -8.57421875 14.8046875 C-3.93179183 7.59989702 -3.93179183 7.59989702 0 0 Z " fill="#22388A" transform="translate(455,643)"/>
<path d="M0 0 C0.66 0 1.32 0 2 0 C-0.00110895 5.252911 -2.69608142 9.95454805 -5.5 14.8125 C-5.99886719 15.69615234 -6.49773438 16.57980469 -7.01171875 17.49023438 C-7.49253906 18.32490234 -7.97335937 19.15957031 -8.46875 20.01953125 C-8.90638672 20.78370361 -9.34402344 21.54787598 -9.79492188 22.33520508 C-10.19259766 22.8845874 -10.59027344 23.43396973 -11 24 C-11.66 24 -12.32 24 -13 24 C-11.20469881 18.95263894 -8.55008635 14.40609448 -5.9375 9.75 C-5.47794922 8.92242188 -5.01839844 8.09484375 -4.54492188 7.2421875 C-1.13705937 1.13705937 -1.13705937 1.13705937 0 0 Z " fill="#212D7E" transform="translate(588,611)"/>
<path d="M0 0 C0.556875 0.268125 1.11375 0.53625 1.6875 0.8125 C1.6875 2.1325 1.6875 3.4525 1.6875 4.8125 C0.0375 4.8125 -1.6125 4.8125 -3.3125 4.8125 C-3.6425 6.1325 -3.9725 7.4525 -4.3125 8.8125 C-5.3025 8.8125 -6.2925 8.8125 -7.3125 8.8125 C-7.43625 9.781875 -7.56 10.75125 -7.6875 11.75 C-7.89375 12.760625 -8.1 13.77125 -8.3125 14.8125 C-9.3025 15.3075 -9.3025 15.3075 -10.3125 15.8125 C-10.3125 14.1625 -10.3125 12.5125 -10.3125 10.8125 C-9.6525 10.8125 -8.9925 10.8125 -8.3125 10.8125 C-8.2196875 9.4821875 -8.2196875 9.4821875 -8.125 8.125 C-7.08557689 3.88735195 -4.90051572 -0.39733911 0 0 Z " fill="#00166E" transform="translate(622.3125,563.1875)"/>
<path d="M0 0 C0.33 0.33 0.66 0.66 1 1 C1.99 1.33 2.98 1.66 4 2 C2.9375 3.5 2.9375 3.5 1 5 C-2.6875 5.1875 -2.6875 5.1875 -6 5 C-6.33 5.99 -6.66 6.98 -7 8 C-8.32 7.67 -9.64 7.34 -11 7 C-10.67 6.01 -10.34 5.02 -10 4 C-9.34 4 -8.68 4 -8 4 C-8 3.34 -8 2.68 -8 2 C-4.91190305 0.23537317 -3.76687864 0 0 0 Z " fill="#010322" transform="translate(677,389)"/>
<path d="M0 0 C2.63049736 2.3799738 4.47108462 4.7892777 6 8 C5.6875 10.8125 5.6875 10.8125 5 13 C3.68 13 2.36 13 1 13 C-1.32845886 9.36178302 -1.23553948 6.23971058 -1 2 C-0.67 1.34 -0.34 0.68 0 0 Z " fill="#091658" transform="translate(651,527)"/>
<path d="M0 0 C3.23602185 3.81388289 5.83208564 7.50358503 8 12 C7.75 14.9375 7.75 14.9375 7 17 C6.34 17 5.68 17 5 17 C5 16.34 5 15.68 5 15 C3.68 14.34 2.36 13.68 1 13 C1.66 11.02 2.32 9.04 3 7 C2.34 7 1.68 7 1 7 C0.67 4.69 0.34 2.38 0 0 Z " fill="#1A338F" transform="translate(705,633)"/>
<path d="M0 0 C0.33 0.66 0.66 1.32 1 2 C0.2754531 3.7125654 -0.45458944 5.42335234 -1.23046875 7.11328125 C-2.27998746 9.68646671 -2.66496043 12.2526755 -3 15 C-3.66 15 -4.32 15 -5 15 C-5 15.66 -5 16.32 -5 17 C-5.66 17 -6.32 17 -7 17 C-7 17.66 -7 18.32 -7 19 C-7.99 19 -8.98 19 -10 19 C-8.40376856 14.60616294 -6.21975667 10.71004193 -3.875 6.6875 C-3.50246094 6.04232422 -3.12992187 5.39714844 -2.74609375 4.73242188 C-1.83367787 3.15324055 -0.91724491 1.57638136 0 0 Z " fill="#263788" transform="translate(469,619)"/>
<path d="M0 0 C3.02252426 6.04504851 0.8518941 15.50430747 0 22 C-0.33 22 -0.66 22 -1 22 C-0.98839844 21.05898438 -0.97679687 20.11796875 -0.96484375 19.1484375 C-0.95582031 17.90320313 -0.94679688 16.65796875 -0.9375 15.375 C-0.92589844 14.14523437 -0.91429687 12.91546875 -0.90234375 11.6484375 C-0.99136076 8.32276209 -1.36313913 5.25952412 -2 2 C-4.31 2.66 -6.62 3.32 -9 4 C-9.66 3.34 -10.32 2.68 -11 2 C-7.36576791 -0.32590854 -4.22911669 -0.16265833 0 0 Z " fill="#3C3C47" transform="translate(708,376)"/>
<path d="M0 0 C2 2 2 2 2 6 C2.66 6 3.32 6 4 6 C4 6.66 4 7.32 4 8 C5.98 8 7.96 8 10 8 C10 8.33 10 8.66 10 9 C8.37681021 9.36237263 6.7513642 9.71465157 5.125 10.0625 C4.22007812 10.25972656 3.31515625 10.45695313 2.3828125 10.66015625 C0 11 0 11 -2 10 C-2.25 3.375 -2.25 3.375 0 0 Z " fill="#17388B" transform="translate(444,662)"/>
<path d="M0 0 C0.66 0 1.32 0 2 0 C2 0.66 2 1.32 2 2 C3.32 2.33 4.64 2.66 6 3 C6.08153933 4.58246707 6.13943557 6.16616273 6.1875 7.75 C6.22230469 8.63171875 6.25710938 9.5134375 6.29296875 10.421875 C5.94923684 13.44671583 4.99772541 14.75583602 3 17 C2.34 16.67 1.68 16.34 1 16 C1.33 11.71 1.66 7.42 2 3 C1.34 3 0.68 3 0 3 C0 2.01 0 1.02 0 0 Z " fill="#051762" transform="translate(668,564)"/>
<path d="M0 0 C2.41544599 3.12040647 4.22829419 6.48171897 6 10 C4.35 10 2.7 10 1 10 C1 8.68 1 7.36 1 6 C0.34 6 -0.32 6 -1 6 C-1.33 5.01 -1.66 4.02 -2 3 C-4.31 3.33 -6.62 3.66 -9 4 C-8.67 3.01 -8.34 2.02 -8 1 C-4.88847976 -0.55576012 -3.45766656 -0.73142946 0 0 Z " fill="#2F3D83" transform="translate(697,618)"/>
<path d="M0 0 C2.475 0.99 2.475 0.99 5 2 C5 2.66 5 3.32 5 4 C5.66 4 6.32 4 7 4 C7.33 4.66 7.66 5.32 8 6 C8.66 6.33 9.32 6.66 10 7 C10 7.99 10 8.98 10 10 C9.34 10 8.68 10 8 10 C8 10.99 8 11.98 8 13 C7.34 13 6.68 13 6 13 C4.99491199 11.21118264 3.99607264 9.41885304 3 7.625 C2.1646875 6.12839844 2.1646875 6.12839844 1.3125 4.6015625 C0 2 0 2 0 0 Z " fill="#1B245F" transform="translate(477,534)"/>
<path d="M0 0 C1.98 0 3.96 0 6 0 C6 0.66 6 1.32 6 2 C6.66 2 7.32 2 8 2 C8 2.66 8 3.32 8 4 C8.66 4.33 9.32 4.66 10 5 C8.68 7.31 7.36 9.62 6 12 C3.90649311 8.5980513 3.82057837 5.94727588 4 2 C2.68 2 1.36 2 0 2 C0 1.34 0 0.68 0 0 Z " fill="#1B3B9A" transform="translate(388,656)"/>
<path d="M0 0 C1.32 0.33 2.64 0.66 4 1 C1.36 5.62 -1.28 10.24 -4 15 C-4.66 14.34 -5.32 13.68 -6 13 C-6 12.01 -6 11.02 -6 10 C-5.34 10 -4.68 10 -4 10 C-4 8.68 -4 7.36 -4 6 C-3.34 6 -2.68 6 -2 6 C-2 4.68 -2 3.36 -2 2 C-1.34 2 -0.68 2 0 2 C0 1.34 0 0.68 0 0 Z " fill="#172463" transform="translate(454,556)"/>
<path d="M0 0 C2 2 2 2 2 5 C2.66 5.33 3.32 5.66 4 6 C3.505 6.8353125 3.505 6.8353125 3 7.6875 C1.8690399 10.30284522 1.84337026 12.1806646 2 15 C0.68 15 -0.64 15 -2 15 C-2 11.7 -2 8.4 -2 5 C-1.34 5 -0.68 5 0 5 C0 3.35 0 1.7 0 0 Z " fill="#13193D" transform="translate(506,461)"/>
<path d="M0 0 C2.48982535 2.27745789 4.10368997 4.62335238 5.75 7.5625 C6.19859375 8.34753906 6.6471875 9.13257813 7.109375 9.94140625 C7.40328125 10.62074219 7.6971875 11.30007813 8 12 C7.67 12.66 7.34 13.32 7 14 C6.34 13.67 5.68 13.34 5 13 C4.67 13.66 4.34 14.32 4 15 C2.68 14.34 1.36 13.68 0 13 C0.66 13 1.32 13 2 13 C2 11.68 2 10.36 2 9 C1.34 9 0.68 9 0 9 C0.33 8.01 0.66 7.02 1 6 C0.72428861 3.99124558 0.39764263 1.98821313 0 0 Z " fill="#11132D" transform="translate(560,369)"/>
<path d="M0 0 C0.19878036 3.57804656 0.04108797 5.99208089 -2 9 C-2.99 9.33 -3.98 9.66 -5 10 C-5.66 9.67 -6.32 9.34 -7 9 C-6.39285714 3.53571429 -6.39285714 3.53571429 -4.625 1.125 C-3 0 -3 0 0 0 Z " fill="#011A79" transform="translate(692,621)"/>
<path d="M0 0 C0.66 0.33 1.32 0.66 2 1 C1.67 1.66 1.34 2.32 1 3 C1.66 3.33 2.32 3.66 3 4 C2.12751572 5.67900754 1.22613701 7.34302608 0.3125 9 C-0.43580078 10.3921875 -0.43580078 10.3921875 -1.19921875 11.8125 C-3 14 -3 14 -5.70703125 14.3125 C-6.46371094 14.209375 -7.22039063 14.10625 -8 14 C-7.67 12.68 -7.34 11.36 -7 10 C-6.34 10.33 -5.68 10.66 -5 11 C-4.67 9.35 -4.34 7.7 -4 6 C-3.34 6 -2.68 6 -2 6 C-2 5.34 -2 4.68 -2 4 C-1.34 4 -0.68 4 0 4 C0 2.68 0 1.36 0 0 Z " fill="#14215D" transform="translate(580,534)"/>
<path d="M0 0 C1.1875 1.5625 1.1875 1.5625 2 4 C0.62464545 8.12606364 -0.79000039 11.08181853 -4 14 C-4.33 14.99 -4.66 15.98 -5 17 C-7.0625 17.6875 -7.0625 17.6875 -9 18 C-7.64734437 14.35371092 -5.9907517 11.17432828 -3.9375 7.875 C-2.27320598 5.19748052 -1.00009199 3.00027598 0 0 Z " fill="#20234F" transform="translate(429,491)"/>
<path d="M0 0 C2.31 0.33 4.62 0.66 7 1 C8.125 7.625 8.125 7.625 7 11 C6.01 11.33 5.02 11.66 4 12 C3.896875 11.13375 3.79375 10.2675 3.6875 9.375 C2.96601586 5.83316877 1.72876739 3.15687958 0 0 Z " fill="#1D2146" transform="translate(549,463)"/>
<path d="M0 0 C0.33 0 0.66 0 1 0 C1 3.3 1 6.6 1 10 C0.34 10 -0.32 10 -1 10 C-1.33 11.98 -1.66 13.96 -2 16 C-2.33 16 -2.66 16 -3 16 C-3.144375 15.21625 -3.28875 14.4325 -3.4375 13.625 C-3.87798925 11.03578982 -3.87798925 11.03578982 -5 9 C-4.00390625 6.8359375 -4.00390625 6.8359375 -2.5625 4.375 C-2.08941406 3.55773437 -1.61632812 2.74046875 -1.12890625 1.8984375 C-0.75636719 1.27195312 -0.38382812 0.64546875 0 0 Z " fill="#171E48" transform="translate(439,474)"/>
<path d="M0 0 C7 8.75 7 8.75 7 13 C5.68 13.33 4.36 13.66 3 14 C3 12.35 3 10.7 3 9 C1.68 8.67 0.36 8.34 -1 8 C-0.67 5.36 -0.34 2.72 0 0 Z " fill="#1E213A" transform="translate(589,419)"/>
<path d="M0 0 C0.66 0 1.32 0 2 0 C2.33 4.29 2.66 8.58 3 13 C2.67 13 2.34 13 2 13 C1.67 16.63 1.34 20.26 1 24 C0.67 24 0.34 24 0 24 C0 16.08 0 8.16 0 0 Z " fill="#010423" transform="translate(700,418)"/>
<path d="M0 0 C2.3431213 0.25561323 4.67843403 0.59270772 7 1 C7.33 1.66 7.66 2.32 8 3 C7.67 3.66 7.34 4.32 7 5 C6.34 5 5.68 5 5 5 C5 4.34 5 3.68 5 3 C3.35 3 1.7 3 0 3 C-0.268125 3.969375 -0.53625 4.93875 -0.8125 5.9375 C-1.204375 6.948125 -1.59625 7.95875 -2 9 C-2.99 9.33 -3.98 9.66 -5 10 C-3.84414715 6.08788267 -2.64465038 3.1254959 0 0 Z " fill="#2F2F32" transform="translate(527,322)"/>
<path d="M0 0 C0 2.62113708 -0.31292445 4.50935112 -1 7 C-0.319375 7.226875 0.36125 7.45375 1.0625 7.6875 C4.79614324 9.35572357 7.72163421 11.55729608 11 14 C10.67 14.99 10.34 15.98 10 17 C7.98073966 15.64781673 5.98793738 14.27192897 4 12.875 C3.42765625 12.49601562 2.8553125 12.11703125 2.265625 11.7265625 C0.625 10.5546875 0.625 10.5546875 -2 8 C-2.5 4.8203125 -2.5 4.8203125 -2 2 C-1.34 1.34 -0.68 0.68 0 0 Z " fill="#2A2A40" transform="translate(624,408)"/>
<path d="M0 0 C0.66 0 1.32 0 2 0 C2.70703125 1.609375 2.70703125 1.609375 3 4 C1.63671875 7.015625 1.63671875 7.015625 -0.3125 10.25 C-1.26576172 11.86648438 -1.26576172 11.86648438 -2.23828125 13.515625 C-2.81964844 14.33546875 -3.40101563 15.1553125 -4 16 C-4.66 16 -5.32 16 -6 16 C-6 14.68 -6 13.36 -6 12 C-5.34 12 -4.68 12 -4 12 C-3.67 10.35 -3.34 8.7 -3 7 C-2.34 7 -1.68 7 -1 7 C-0.67 4.69 -0.34 2.38 0 0 Z " fill="#1A2A66" transform="translate(560,568)"/>
<path d="M0 0 C0.66 0.33 1.32 0.66 2 1 C2 1.33 2 1.66 2 2 C2.66 2 3.32 2 4 2 C4 2.66 4 3.32 4 4 C3.34 4 2.68 4 2 4 C2 4.66 2 5.32 2 6 C0.02 6 -1.96 6 -4 6 C-4 6.66 -4 7.32 -4 8 C-4.66 7.67 -5.32 7.34 -6 7 C-5.67 6.34 -5.34 5.68 -5 5 C-6.32 4.67 -7.64 4.34 -9 4 C-7.54618103 3.30300448 -6.08677047 2.61766134 -4.625 1.9375 C-3.40683594 1.36322266 -3.40683594 1.36322266 -2.1640625 0.77734375 C-1.44992187 0.52082031 -0.73578125 0.26429688 0 0 Z " fill="#181A2F" transform="translate(682,384)"/>
<path d="M0 0 C0 0.66 0 1.32 0 2 C-1.24460783 2.67667998 -2.49596896 3.34094719 -3.75 4 C-4.44609375 4.37125 -5.1421875 4.7425 -5.859375 5.125 C-8 6 -8 6 -12 6 C-12.33 5.01 -12.66 4.02 -13 3 C-9.51872026 -0.48127974 -4.72504846 0 0 0 Z " fill="#000219" transform="translate(706,378)"/>
<path d="M0 0 C3.50297874 4.02193856 9 10.39433144 9 16 C8.01 15.67 7.02 15.34 6 15 C6 14.34 6 13.68 6 13 C5.34 13 4.68 13 4 13 C4 11.68 4 10.36 4 9 C3.34 9 2.68 9 2 9 C0.14223235 5.86501708 -0.20140476 3.62528568 0 0 Z " fill="#2D3D88" transform="translate(484,631)"/>
<path d="M0 0 C1.953125 0.7109375 1.953125 0.7109375 4 2 C4.609375 4.1640625 4.609375 4.1640625 4.75 6.625 C4.80671875 7.44226563 4.8634375 8.25953125 4.921875 9.1015625 C4.94765625 9.72804688 4.9734375 10.35453125 5 11 C3.68 11 2.36 11 1 11 C0.67 11.99 0.34 12.98 0 14 C-0.66 14 -1.32 14 -2 14 C-1.39816251 11.97954558 -0.72693904 9.97888961 0 8 C0.66 7.67 1.32 7.34 2 7 C1.34 4.69 0.68 2.38 0 0 Z " fill="#011150" transform="translate(639,513)"/>
<path d="M0 0 C0.99 0 1.98 0 3 0 C6 4.22222222 6 4.22222222 6 7 C7.32 7 8.64 7 10 7 C9.67 8.98 9.34 10.96 9 13 C4.66965806 9.15080717 2.3439244 5.27710354 0 0 Z " fill="#0E133E" transform="translate(618,483)"/>
<path d="M0 0 C0.33 0.66 0.66 1.32 1 2 C1.99 2.33 2.98 2.66 4 3 C4.9140625 4.7421875 4.9140625 4.7421875 5.625 6.875 C5.86476563 7.57367188 6.10453125 8.27234375 6.3515625 8.9921875 C6.56554687 9.65476562 6.77953125 10.31734375 7 11 C7.33 11.99 7.66 12.98 8 14 C7.01 14.33 6.02 14.66 5 15 C4.67 13.35 4.34 11.7 4 10 C3.34 10 2.68 10 2 10 C0.68373308 6.38026598 0 3.90432869 0 0 Z " fill="#01041C" transform="translate(564,380)"/>
<path d="M0 0 C2.14762184 3.22143276 2.561068 4.2595467 2 8 C0.1875 9.8125 0.1875 9.8125 -2 11 C-2.99 11 -3.98 11 -5 11 C-3.55049545 7.2089881 -1.84827434 3.6125362 0 0 Z " fill="#212856" transform="translate(418,510)"/>
<path d="M0 0 C0.66 0.33 1.32 0.66 2 1 C-0.64 5.62 -3.28 10.24 -6 15 C-6.66 14.67 -7.32 14.34 -8 14 C-7.67 11.69 -7.34 9.38 -7 7 C-6.01 6.67 -5.02 6.34 -4 6 C-2.79117904 3.99983534 -2.79117904 3.99983534 -2 2 C-1.34 2 -0.68 2 0 2 C0 1.34 0 0.68 0 0 Z " fill="#272A4E" transform="translate(679,465)"/>
<path d="M0 0 C0.66 0 1.32 0 2 0 C2 0.66 2 1.32 2 2 C3.65 2 5.3 2 7 2 C5.68 4.64 4.36 7.28 3 10 C2.34 10 1.68 10 1 10 C0.7834375 8.6078125 0.7834375 8.6078125 0.5625 7.1875 C0.07899889 3.99274889 0.07899889 3.99274889 -1 1 C-0.67 0.67 -0.34 0.34 0 0 Z " fill="#011A71" transform="translate(429,592)"/>
<path d="M0 0 C0 0.99 0 1.98 0 3 C0.66 3.33 1.32 3.66 2 4 C1.34 4 0.68 4 0 4 C0 5.32 0 6.64 0 8 C-1.32 8 -2.64 8 -4 8 C-4 6.68 -4 5.36 -4 4 C-4.66 4 -5.32 4 -6 4 C-6 3.34 -6 2.68 -6 2 C-3 0 -3 0 0 0 Z " fill="#021B82" transform="translate(532,612)"/>
<path d="M0 0 C0.99 0.33 1.98 0.66 3 1 C2.34 1.66 1.68 2.32 1 3 C0.54188325 4.97235333 0.54188325 4.97235333 0.375 7.125 C0.189375 9.043125 0.189375 9.043125 0 11 C-1.32 11.33 -2.64 11.66 -4 12 C-4 10.02 -4 8.04 -4 6 C-3.34 6 -2.68 6 -2 6 C-2 4.68 -2 3.36 -2 2 C-1.34 2 -0.68 2 0 2 C0 1.34 0 0.68 0 0 Z " fill="#020B3F" transform="translate(604,490)"/>
<path d="M0 0 C1.26237731 3.78713193 0.67558873 6.25651933 0.0625 10.1875 C-0.22947266 12.09595703 -0.22947266 12.09595703 -0.52734375 14.04296875 C-0.68332031 15.01878906 -0.83929687 15.99460937 -1 17 C-3.22264871 13.66602694 -3.29675463 12.40485109 -3.3125 8.5 C-3.32925781 7.5409375 -3.34601562 6.581875 -3.36328125 5.59375 C-2.95128633 2.65219489 -2.29930415 1.79576261 0 0 Z " fill="#373850" transform="translate(705,410)"/>
<path d="M0 0 C2 3 2 3 2 5 C1.34 5 0.68 5 0 5 C0 7.64 0 10.28 0 13 C-1.32 13 -2.64 13 -4 13 C-3.71517632 11.58194169 -3.42181856 10.16559621 -3.125 8.75 C-2.96257813 7.96109375 -2.80015625 7.1721875 -2.6328125 6.359375 C-2.00849925 4.03168856 -1.15161458 2.10968048 0 0 Z " fill="#0F2880" transform="translate(684,627)"/>
<path d="M0 0 C0.99 0 1.98 0 3 0 C3.5497272 5.63470383 1.95047835 8.38987758 -1 13 C-1.66 13 -2.32 13 -3 13 C-2.67 10.69 -2.34 8.38 -2 6 C-1.34 6 -0.68 6 0 6 C0 4.02 0 2.04 0 0 Z " fill="#1F2F68" transform="translate(566,556)"/>
<path d="M0 0 C1 3 1 3 0.109375 5.19140625 C-0.33921875 5.97386719 -0.7878125 6.75632812 -1.25 7.5625 C-1.90742188 8.74005859 -1.90742188 8.74005859 -2.578125 9.94140625 C-4 12 -4 12 -7 14 C-7.125 8.25 -7.125 8.25 -6 6 C-5.01 5.67 -4.02 5.34 -3 5 C-1.30117552 2.50240018 -1.30117552 2.50240018 0 0 Z " fill="#000736" transform="translate(447,465)"/>
<path d="M0 0 C4 1 4 1 7 3 C7.8125 5.4375 7.8125 5.4375 8 8 C7.01 9.485 7.01 9.485 6 11 C4.02 7.37 2.04 3.74 0 0 Z " fill="#253075" transform="translate(504,582)"/>
<path d="M0 0 C0.99 0.33 1.98 0.66 3 1 C3 1.66 3 2.32 3 3 C-0.46153846 6 -0.46153846 6 -3 6 C-3 6.66 -3 7.32 -3 8 C-4.32 8.33 -5.64 8.66 -7 9 C-6.34 7.02 -5.68 5.04 -5 3 C-4.01 3 -3.02 3 -2 3 C-1.34 2.01 -0.68 1.02 0 0 Z " fill="#172365" transform="translate(404,540)"/>
<path d="M0 0 C1.32 0.99 2.64 1.98 4 3 C3.21718695 4.33855056 2.42348123 5.67073644 1.625 7 C1.18414063 7.7425 0.74328125 8.485 0.2890625 9.25 C-0.13632812 9.8275 -0.56171875 10.405 -1 11 C-1.66 11 -2.32 11 -3 11 C-3 9.02 -3 7.04 -3 5 C-2.34 5 -1.68 5 -1 5 C-0.67 3.35 -0.34 1.7 0 0 Z " fill="#0F1443" transform="translate(611,479)"/>
<path d="M0 0 C0.99 0 1.98 0 3 0 C3 0.99 3 1.98 3 3 C3.66 3 4.32 3 5 3 C5 3.99 5 4.98 5 6 C4.34 6 3.68 6 3 6 C3 6.66 3 7.32 3 8 C2.34 8 1.68 8 1 8 C0.67 9.32 0.34 10.64 0 12 C0 11.34 0 10.68 0 10 C-0.66 9.67 -1.32 9.34 -2 9 C-1.67 7.35 -1.34 5.7 -1 4 C-0.34 4 0.32 4 1 4 C0.67 2.68 0.34 1.36 0 0 Z " fill="#012092" transform="translate(627,640)"/>
<path d="M0 0 C0.33 0 0.66 0 1 0 C1 1.65 1 3.3 1 5 C1.66 5.33 2.32 5.66 3 6 C2.360625 6.928125 1.72125 7.85625 1.0625 8.8125 C-1.08622093 11.84219943 -1.08622093 11.84219943 -2 15 C-2.66 15 -3.32 15 -4 15 C-4 15.66 -4 16.32 -4 17 C-4.66 17 -5.32 17 -6 17 C-5.00790606 14.32897786 -4.00824802 12.01253699 -2.4375 9.625 C-0.68594884 6.42651527 -0.35324922 3.60314201 0 0 Z " fill="#102371" transform="translate(384,569)"/>
<path d="M0 0 C1.65 0 3.3 0 5 0 C3.68 2.64 2.36 5.28 1 8 C0.34 8 -0.32 8 -1 8 C-1 7.34 -1 6.68 -1 6 C-1.99 5.67 -2.98 5.34 -4 5 C-3.34 4.01 -2.68 3.02 -2 2 C-1.34 2 -0.68 2 0 2 C0 1.34 0 0.68 0 0 Z " fill="#181F53" transform="translate(598,502)"/>
<path d="M0 0 C0.99 0.33 1.98 0.66 3 1 C1.88407791 3.00507927 0.75701288 5.00396096 -0.375 7 C-1.31472656 8.670625 -1.31472656 8.670625 -2.2734375 10.375 C-2.84320312 11.24125 -3.41296875 12.1075 -4 13 C-4.66 13 -5.32 13 -6 13 C-6 12.34 -6 11.68 -6 11 C-5.34 11 -4.68 11 -4 11 C-4.33 9.02 -4.66 7.04 -5 5 C-4.01 4.67 -3.02 4.34 -2 4 C-0.79117904 1.99983534 -0.79117904 1.99983534 0 0 Z " fill="#262B53" transform="translate(669,481)"/>
<path d="M0 0 C0.33 0 0.66 0 1 0 C1 2.97 1 5.94 1 9 C0.34 9 -0.32 9 -1 9 C-1.33 9.99 -1.66 10.98 -2 12 C-2.99 11.34 -3.98 10.68 -5 10 C-4.34 8.35 -3.68 6.7 -3 5 C-2.34 5 -1.68 5 -1 5 C-0.67 3.35 -0.34 1.7 0 0 Z " fill="#010B3C" transform="translate(557,469)"/>
<path d="M0 0 C0.66 2.64 1.32 5.28 2 8 C-0.97 7.505 -0.97 7.505 -4 7 C-4 5.02 -4 3.04 -4 1 C-2 0 -2 0 0 0 Z " fill="#010318" transform="translate(560,368)"/>
<path d="M0 0 C0.99 0.33 1.98 0.66 3 1 C6 7.11111111 6 7.11111111 6 10 C4.68 10.33 3.36 10.66 2 11 C0.80712589 7.12315913 0 4.08378077 0 0 Z " fill="#080916" transform="translate(552,358)"/>
<path d="M0 0 C0.66 0 1.32 0 2 0 C3.32 2.64 4.64 5.28 6 8 C4.68 8.33 3.36 8.66 2 9 C0 7 0 7 -0.125 3.375 C-0.08375 2.26125 -0.0425 1.1475 0 0 Z " fill="#112C84" transform="translate(712,647)"/>
<path d="M0 0 C0.66 0.66 1.32 1.32 2 2 C0.35 4.97 -1.3 7.94 -3 11 C-3.66 10.34 -4.32 9.68 -5 9 C-5 7.68 -5 6.36 -5 5 C-4.34 5 -3.68 5 -3 5 C-3 3.68 -3 2.36 -3 1 C-2.01 0.67 -1.02 0.34 0 0 Z " fill="#233678" transform="translate(665,587)"/>
<path d="M0 0 C-0.50603992 2.16874252 -0.99983813 3.99967627 -2 6 C-3.97888961 6.72693904 -5.97954558 7.39816251 -8 8 C-5.18918919 0 -5.18918919 0 0 0 Z " fill="#191E4B" transform="translate(548,490)"/>
<path d="M0 0 C-0.66 1.32 -1.32 2.64 -2 4 C-4.64 4 -7.28 4 -10 4 C-10 3.01 -10 2.02 -10 1 C-6.56484998 0.37542727 -3.50935186 0 0 0 Z " fill="#010320" transform="translate(654,400)"/>
<path d="M0 0 C0.33 0.66 0.66 1.32 1 2 C1.66 2.33 2.32 2.66 3 3 C0.69 6.96 -1.62 10.92 -4 15 C-5.28485596 9.86057616 -4.22194431 8.62164416 -2 4 C-1.34 4 -0.68 4 0 4 C0 2.68 0 1.36 0 0 Z " fill="#334789" transform="translate(642,624)"/>
<path d="M0 0 C0.98120464 3.05263664 0.98120464 4.94736336 0 8 C-0.66 8 -1.32 8 -2 8 C-2 9.32 -2 10.64 -2 12 C-3.32 12 -4.64 12 -6 12 C-4.43358249 7.69235185 -2.31663844 3.93828536 0 0 Z " fill="#1F317E" transform="translate(356,618)"/>
<path d="M0 0 C1.32 0.66 2.64 1.32 4 2 C2.35 4.64 0.7 7.28 -1 10 C-1.66 9.34 -2.32 8.68 -3 8 C-3 6.68 -3 5.36 -3 4 C-2.01 4 -1.02 4 0 4 C0 2.68 0 1.36 0 0 Z " fill="#2B4588" transform="translate(419,616)"/>
<path d="M0 0 C1.21518987 4.86075949 1.21518987 4.86075949 0 8 C-1.5 9.625 -1.5 9.625 -3 11 C-3.33 11.66 -3.66 12.32 -4 13 C-4.99 12.67 -5.98 12.34 -7 12 C-4.69 8.04 -2.38 4.08 0 0 Z " fill="#29357D" transform="translate(364,604)"/>
<path d="M0 0 C0.33 1.32 0.66 2.64 1 4 C0.34 4 -0.32 4 -1 4 C-1 4.66 -1 5.32 -1 6 C-1.66 6 -2.32 6 -3 6 C-3.12375 6.804375 -3.2475 7.60875 -3.375 8.4375 C-3.58125 9.283125 -3.7875 10.12875 -4 11 C-4.99 11.495 -4.99 11.495 -6 12 C-6.25 6.375 -6.25 6.375 -4 3 C-3.01 2.67 -2.02 2.34 -1 2 C-0.67 1.34 -0.34 0.68 0 0 Z " fill="#0A1857" transform="translate(623,554)"/>
<path d="M0 0 C0.99 0.33 1.98 0.66 3 1 C3.33 3.31 3.66 5.62 4 8 C3.01 8.495 3.01 8.495 2 9 C1.34 8.01 0.68 7.02 0 6 C-0.66 5.67 -1.32 5.34 -2 5 C-2 3.68 -2 2.36 -2 1 C-1.34 0.67 -0.68 0.34 0 0 Z " fill="#020733" transform="translate(506,475)"/>
<path d="M0 0 C-1.32 0.33 -2.64 0.66 -4 1 C-4 1.66 -4 2.32 -4 3 C-5.125 4.625 -5.125 4.625 -7 6 C-10.1875 6.1875 -10.1875 6.1875 -13 6 C-12 3 -12 3 -9.78515625 1.796875 C-8.43744141 1.27867187 -8.43744141 1.27867187 -7.0625 0.75 C-6.16660156 0.39421875 -5.27070312 0.0384375 -4.34765625 -0.328125 C-2 -1 -2 -1 0 0 Z " fill="#272736" transform="translate(673,390)"/>
<path d="M0 0 C0.66 1.32 1.32 2.64 2 4 C1.34 4 0.68 4 0 4 C0.33 5.32 0.66 6.64 1 8 C2.65 8.33 4.3 8.66 6 9 C5.34 9.66 4.68 10.32 4 11 C1.375 10.625 1.375 10.625 -1 10 C-2.25 3.375 -2.25 3.375 0 0 Z " fill="#415AA2" transform="translate(664,662)"/>
<path d="M0 0 C0.99 0.33 1.98 0.66 3 1 C2.42415568 3.38564077 1.77772405 5.66682784 1 8 C-0.65 8.33 -2.3 8.66 -4 9 C-2.80100302 5.9168649 -1.52299523 2.93720508 0 0 Z " fill="#1A2E84" transform="translate(349,630)"/>
<path d="M0 0 C1.32 0.33 2.64 0.66 4 1 C3.34 1 2.68 1 2 1 C1.855625 1.763125 1.71125 2.52625 1.5625 3.3125 C1 6 1 6 0 9 C-0.66 9 -1.32 9 -2 9 C-2 9.66 -2 10.32 -2 11 C-2.66 11 -3.32 11 -4 11 C-3.52269162 9.5410574 -3.04308958 8.08286504 -2.5625 6.625 C-2.29566406 5.81289063 -2.02882813 5.00078125 -1.75390625 4.1640625 C-1 2 -1 2 0 0 Z " fill="#03196F" transform="translate(470,619)"/>
<path d="M0 0 C0.66 0.99 1.32 1.98 2 3 C2.804375 3.6496875 2.804375 3.6496875 3.625 4.3125 C5.64822716 6.79555152 5.20640103 8.90398457 5 12 C1.66442368 9.0094833 -0.15083921 6.06815373 -2 2 C-1.34 2 -0.68 2 0 2 C0 1.34 0 0.68 0 0 Z " fill="#1A2361" transform="translate(491,554)"/>
<path d="M0 0 C1.32 0 2.64 0 4 0 C4.33 1.98 4.66 3.96 5 6 C3.35 6 1.7 6 0 6 C-0.33 6.66 -0.66 7.32 -1 8 C-1.33 7.01 -1.66 6.02 -2 5 C-1.34 5 -0.68 5 0 5 C0 3.35 0 1.7 0 0 Z " fill="#0C227A" transform="translate(426,598)"/>
<path d="M0 0 C0.99 0.33 1.98 0.66 3 1 C0.525 5.455 0.525 5.455 -2 10 C-2.66 9.67 -3.32 9.34 -4 9 C-3.67 6.69 -3.34 4.38 -3 2 C-2.01 2 -1.02 2 0 2 C0 1.34 0 0.68 0 0 Z " fill="#2C325B" transform="translate(659,498)"/>
<path d="M0 0 C0.99 0 1.98 0 3 0 C2.34 3.3 1.68 6.6 1 10 C0.34 10 -0.32 10 -1 10 C-1.02689216 8.52093108 -1.04634621 7.04172517 -1.0625 5.5625 C-1.07410156 4.73878906 -1.08570313 3.91507812 -1.09765625 3.06640625 C-1 1 -1 1 0 0 Z " fill="#010630" transform="translate(509,456)"/>
<path d="M0 0 C0.66 0 1.32 0 2 0 C2 1.32 2 2.64 2 4 C2.66 4 3.32 4 4 4 C4 4.99 4 5.98 4 7 C3.34 7 2.68 7 2 7 C2 8.32 2 9.64 2 11 C1.34 11 0.68 11 0 11 C-0.84098656 6.98195309 -1.05404945 3.98196457 0 0 Z " fill="#121533" transform="translate(636,425)"/>
<path d="M0 0 C0.33 0 0.66 0 1 0 C0.59046923 5.22151733 -0.18740739 8.29954246 -4 12 C-4.99 12 -5.98 12 -7 12 C-5.85865673 9.99743426 -4.71181367 7.99800203 -3.5625 6 C-2.92441406 4.88625 -2.28632813 3.7725 -1.62890625 2.625 C-1.09136719 1.75875 -0.55382812 0.8925 0 0 Z " fill="#3D3D48" transform="translate(492,382)"/>
<path d="M0 0 C0.99 0.33 1.98 0.66 3 1 C3 1.66 3 2.32 3 3 C8.61 3 14.22 3 20 3 C20 3.33 20 3.66 20 4 C13.4 4.33 6.8 4.66 0 5 C0 3.35 0 1.7 0 0 Z " fill="#04297A" transform="translate(329,667)"/>
<path d="M0 0 C0.75 1.6875 0.75 1.6875 1 4 C-1.13381449 7.2769294 -2.25018012 8.75006004 -6 10 C-6 9.01 -6 8.02 -6 7 C-5.34 7 -4.68 7 -4 7 C-4 5.68 -4 4.36 -4 3 C-3.34 3 -2.68 3 -2 3 C-2 2.34 -2 1.68 -2 1 C-1.34 0.67 -0.68 0.34 0 0 Z " fill="#011E92" transform="translate(350,637)"/>
<path d="M0 0 C1.32 0.33 2.64 0.66 4 1 C4.66 3.97 5.32 6.94 6 10 C5.34 10 4.68 10 4 10 C4 8.68 4 7.36 4 6 C2.68 5.67 1.36 5.34 0 5 C0 3.35 0 1.7 0 0 Z " fill="#0D2377" transform="translate(700,628)"/>
<path d="M0 0 C-0.66 1.98 -1.32 3.96 -2 6 C-3.32 6 -4.64 6 -6 6 C-6 7.32 -6 8.64 -6 10 C-6.66 10 -7.32 10 -8 10 C-7.67895459 6.46850054 -7.34914783 4.44225392 -5.125 1.625 C-3 0 -3 0 0 0 Z " fill="#02196A" transform="translate(610,582)"/>
<path d="M0 0 C0.66 0 1.32 0 2 0 C0.00365016 4.32542465 -2.10243943 8.84037965 -6.25 11.375 C-6.8275 11.58125 -7.405 11.7875 -8 12 C-8 11.01 -8 10.02 -8 9 C-7.01 8.67 -6.02 8.34 -5 8 C-3.62322215 6.13692349 -3.62322215 6.13692349 -2.4375 3.9375 C-1.18359375 1.71484375 -1.18359375 1.71484375 0 0 Z " fill="#010528" transform="translate(470,426)"/>
<path d="M0 0 C0 0.99 0 1.98 0 3 C-3.96 3 -7.92 3 -12 3 C-4.82142857 -1.78571429 -4.82142857 -1.78571429 0 0 Z " fill="#25263C" transform="translate(639,405)"/>
<path d="M0 0 C2 2 2 2 2.125 4.625 C2.08375 5.40875 2.0425 6.1925 2 7 C1.01 7.33 0.02 7.66 -1 8 C-1.33 8.66 -1.66 9.32 -2 10 C-3.06351675 6.61608307 -3.21442982 5.4195366 -1.5625 2.1875 C-1.046875 1.465625 -0.53125 0.74375 0 0 Z " fill="#14308F" transform="translate(566,649)"/>
<path d="M0 0 C0.66 0.33 1.32 0.66 2 1 C1.62875 1.7425 1.2575 2.485 0.875 3.25 C-0.29515863 5.94283647 -0.29515863 5.94283647 0.875 8.3125 C1.431875 9.1478125 1.431875 9.1478125 2 10 C1.34 10 0.68 10 0 10 C0 10.66 0 11.32 0 12 C-0.66 12 -1.32 12 -2 12 C-2 8.7 -2 5.4 -2 2 C-1.34 2 -0.68 2 0 2 C0 1.34 0 0.68 0 0 Z " fill="#0D174C" transform="translate(648,514)"/>
<path d="M0 0 C3 1.625 3 1.625 6 4 C6.375 7.25 6.375 7.25 6 10 C5.34 10 4.68 10 4 10 C2 7 2 7 2 4 C1.34 4 0.68 4 0 4 C0 2.68 0 1.36 0 0 Z " fill="#010A3E" transform="translate(518,498)"/>
<path d="M0 0 C1.0169313 2.65498232 1.13022151 3.69155375 0.00390625 6.359375 C-0.47175781 7.14828125 -0.94742188 7.9371875 -1.4375 8.75 C-1.91058594 9.54921875 -2.38367188 10.3484375 -2.87109375 11.171875 C-3.24363281 11.77515625 -3.61617187 12.3784375 -4 13 C-4.66 12.67 -5.32 12.34 -6 12 C-4.43358249 7.69235185 -2.31663844 3.93828536 0 0 Z " fill="#272F72" transform="translate(609,574)"/>
<path d="M0 0 C1.32 0.33 2.64 0.66 4 1 C1.525 5.455 1.525 5.455 -1 10 C-1.33 10 -1.66 10 -2 10 C-2.25 3.375 -2.25 3.375 0 0 Z " fill="#31375D" transform="translate(606,490)"/>
<path d="M0 0 C0.66 0 1.32 0 2 0 C2 1.32 2 2.64 2 4 C1.34 4 0.68 4 0 4 C0 5.32 0 6.64 0 8 C-1.65 8.33 -3.3 8.66 -5 9 C-3.35 6.03 -1.7 3.06 0 0 Z " fill="#172B83" transform="translate(670,652)"/>
<path d="M0 0 C2 2 2 2 2 6 C1.01 6 0.02 6 -1 6 C-1.66 7.32 -2.32 8.64 -3 10 C-4 7 -4 7 -3.22265625 5.17578125 C-2.1484375 3.45052083 -1.07421875 1.72526042 0 0 Z " fill="#2A3C8C" transform="translate(572,638)"/>
<path d="M0 0 C0.9435441 2.53899138 1.16906025 3.60909275 0.07421875 6.140625 C-0.61220703 7.18476562 -0.61220703 7.18476562 -1.3125 8.25 C-1.76238281 8.95640625 -2.21226562 9.6628125 -2.67578125 10.390625 C-3.11277344 10.92171875 -3.54976562 11.4528125 -4 12 C-4.66 12 -5.32 12 -6 12 C-4.43358249 7.69235185 -2.31663844 3.93828536 0 0 Z " fill="#33376D" transform="translate(626,545)"/>
<path d="M0 0 C2.23960447 2.87949147 4.29864224 5.76742026 6 9 C5.67 9.66 5.34 10.32 5 11 C3.62437146 9.71034824 2.29233607 8.37310707 1 7 C1 6.34 1 5.68 1 5 C0.34 5 -0.32 5 -1 5 C-0.67 3.35 -0.34 1.7 0 0 Z " fill="#33365D" transform="translate(517,491)"/>
<path d="M0 0 C1.2065625 0.0309375 1.2065625 0.0309375 2.4375 0.0625 C2.4375 1.7125 2.4375 3.3625 2.4375 5.0625 C1.1175 4.7325 -0.2025 4.4025 -1.5625 4.0625 C-1.8925 4.7225 -2.2225 5.3825 -2.5625 6.0625 C-2.94468767 4.40635343 -3.27645102 2.73792976 -3.5625 1.0625 C-2.5625 0.0625 -2.5625 0.0625 0 0 Z " fill="#151A3F" transform="translate(683.5625,457.9375)"/>
<path d="M0 0 C0.99 0 1.98 0 3 0 C3.33 2.31 3.66 4.62 4 7 C3.01 6.01 2.02 5.02 1 4 C0.01 5.32 -0.98 6.64 -2 8 C-1.125 1.125 -1.125 1.125 0 0 Z " fill="#333347" transform="translate(529,428)"/>
<path d="M0 0 C0.33 0.66 0.66 1.32 1 2 C0.00390625 4.3828125 0.00390625 4.3828125 -1.4375 7.125 C-1.91058594 8.03507813 -2.38367188 8.94515625 -2.87109375 9.8828125 C-3.24363281 10.58148437 -3.61617188 11.28015625 -4 12 C-4.66 12 -5.32 12 -6 12 C-4.43358249 7.69235185 -2.31663844 3.93828536 0 0 Z " fill="#35448C" transform="translate(469,619)"/>
<path d="M0 0 C1.32 0.33 2.64 0.66 4 1 C2.68 3.31 1.36 5.62 0 8 C-0.66 7.34 -1.32 6.68 -2 6 C-2 4.68 -2 3.36 -2 2 C-1.34 2 -0.68 2 0 2 C0 1.34 0 0.68 0 0 Z " fill="#222F66" transform="translate(454,556)"/>
<path d="M0 0 C0.66 0.33 1.32 0.66 2 1 C2 1.99 2 2.98 2 4 C-1.375 4.625 -1.375 4.625 -5 5 C-5.66 4.34 -6.32 3.68 -7 3 C-4.69631264 1.93347808 -2.35981813 0.93578995 0 0 Z " fill="#2B2B3A" transform="translate(692,380)"/>
<path d="M0 0 C2.64 0 5.28 0 8 0 C8 0.66 8 1.32 8 2 C7.34 2 6.68 2 6 2 C6 2.66 6 3.32 6 4 C3.83125748 3.49396008 2.00032373 3.00016187 0 2 C0 1.34 0 0.68 0 0 Z " fill="#02209E" transform="translate(608,666)"/>
<path d="M0 0 C0.66 0 1.32 0 2 0 C3.0326802 2.78823655 3.04509293 3.8677274 2.0625 6.75 C1.711875 7.4925 1.36125 8.235 1 9 C0.34 9 -0.32 9 -1 9 C-1.625 6.1875 -1.625 6.1875 -2 3 C-1.34 2.01 -0.68 1.02 0 0 Z " fill="#011E81" transform="translate(673,647)"/>
<path d="M0 0 C0.99 0.99 1.98 1.98 3 3 C2 5 2 5 -1 7 C-1.66 6.67 -2.32 6.34 -3 6 C-3 4.68 -3 3.36 -3 2 C-2.01 2 -1.02 2 0 2 C0 1.34 0 0.68 0 0 Z " fill="#17328A" transform="translate(481,626)"/>
<path d="M0 0 C2.1875 -0.375 2.1875 -0.375 5 0 C6.99022836 1.83961648 8.38989899 3.79186148 10 6 C9.01 6.33 8.02 6.66 7 7 C5.62437146 5.71034824 4.29233607 4.37310707 3 3 C3 2.34 3 1.68 3 1 C2.01 0.67 1.02 0.34 0 0 Z " fill="#293B84" transform="translate(471,618)"/>
<path d="M0 0 C1.5625 1.0625 1.5625 1.0625 3 3 C2.6875 6.6875 2.6875 6.6875 2 10 C1.34 9.67 0.68 9.34 0 9 C-1.28571429 2.57142857 -1.28571429 2.57142857 0 0 Z " fill="#161B49" transform="translate(514,486)"/>
<path d="M0 0 C0.66 0.99 1.32 1.98 2 3 C-1.625 9.875 -1.625 9.875 -5 11 C-3.55049545 7.2089881 -1.84827434 3.6125362 0 0 Z " fill="#2C2C44" transform="translate(461,436)"/>
<path d="M0 0 C0.66 0 1.32 0 2 0 C2 0.66 2 1.32 2 2 C2.99 1.67 3.98 1.34 5 1 C5.33 2.32 5.66 3.64 6 5 C4.125 5.625 4.125 5.625 2 6 C1.34 5.34 0.68 4.68 0 4 C0 2.68 0 1.36 0 0 Z " fill="#171B3D" transform="translate(594,434)"/>
<path d="M0 0 C1.65 0 3.3 0 5 0 C5 2.31 5 4.62 5 7 C4.34 7 3.68 7 3 7 C3 5.68 3 4.36 3 3 C2.01 3 1.02 3 0 3 C0 2.01 0 1.02 0 0 Z " fill="#01031E" transform="translate(635,422)"/>
<path d="M0 0 C0.6875 1.6875 0.6875 1.6875 1 4 C-0.25 6.6875 -0.25 6.6875 -2 9 C-2.99 9.33 -3.98 9.66 -5 10 C-3.66511872 6.40608886 -2.03977277 3.24509304 0 0 Z " fill="#2E3370" transform="translate(393,554)"/>
<path d="M0 0 C1.32 1.65 2.64 3.3 4 5 C3.01 5.495 3.01 5.495 2 6 C1.67 6.99 1.34 7.98 1 9 C0.01 8.34 -0.98 7.68 -2 7 C-1.34 4.69 -0.68 2.38 0 0 Z " fill="#232854" transform="translate(510,479)"/>
<path d="M0 0 C0.33 0 0.66 0 1 0 C1.125 4.75 1.125 4.75 0 7 C-1.32 6.67 -2.64 6.34 -4 6 C-4 4.35 -4 2.7 -4 1 C-3.01 1.495 -3.01 1.495 -2 2 C-1.67 1.67 -1.34 1.34 -1 1 C-0.67 0.67 -0.34 0.34 0 0 Z " fill="#181F49" transform="translate(616,463)"/>
<path d="M0 0 C0.75 1.625 0.75 1.625 1 4 C-0.8125 7.25 -0.8125 7.25 -3 10 C-3.66 10 -4.32 10 -5 10 C-3.66511872 6.40608886 -2.03977277 3.24509304 0 0 Z " fill="#222444" transform="translate(625,448)"/>
<path d="M0 0 C0.99 0.33 1.98 0.66 3 1 C0.25 6.75 0.25 6.75 -2 9 C-2 6.69 -2 4.38 -2 2 C-1.34 2 -0.68 2 0 2 C0 1.34 0 0.68 0 0 Z " fill="#010533" transform="translate(476,416)"/>
<path d="M0 0 C0.33 1.32 0.66 2.64 1 4 C0.34 4 -0.32 4 -1 4 C-0.34 6.31 0.32 8.62 1 11 C-0.32 10.34 -1.64 9.68 -3 9 C-2.5020163 5.26512223 -2.12508244 3.18762365 0 0 Z " fill="#5169AB" transform="translate(558,662)"/>
<path d="M0 0 C0.66 0.99 1.32 1.98 2 3 C1.67 3.99 1.34 4.98 1 6 C-0.32 6 -1.64 6 -3 6 C-3 4.68 -3 3.36 -3 2 C-2.01 1.34 -1.02 0.68 0 0 Z " fill="#032195" transform="translate(387,664)"/>
<path d="M0 0 C2.40072955 2.88087546 4.47291037 5.56404834 6 9 C5.01 9.495 5.01 9.495 4 10 C1.2027092 7.93243723 0.97307727 6.85559629 0.3125 3.3125 C0.209375 2.219375 0.10625 1.12625 0 0 Z " fill="#3D529B" transform="translate(719,657)"/>
<path d="M0 0 C0.66 0.33 1.32 0.66 2 1 C0.68 3.31 -0.64 5.62 -2 8 C-2.66 7.34 -3.32 6.68 -4 6 C-4 5.01 -4 4.02 -4 3 C-3.34 3 -2.68 3 -2 3 C-2 2.34 -2 1.68 -2 1 C-1.34 0.67 -0.68 0.34 0 0 Z " fill="#354D95" transform="translate(624,659)"/>
<path d="M0 0 C0.99 0.99 1.98 1.98 3 3 C2.34 4.98 1.68 6.96 1 9 C0.34 9 -0.32 9 -1 9 C-0.67 6.03 -0.34 3.06 0 0 Z " fill="#0D2988" transform="translate(493,647)"/>
<path d="M0 0 C0.99 0.33 1.98 0.66 3 1 C2.67 2.65 2.34 4.3 2 6 C0.68 6.33 -0.64 6.66 -2 7 C-1.125 2.25 -1.125 2.25 0 0 Z " fill="#0D1F7B" transform="translate(458,638)"/>
<path d="M0 0 C4.76058041 5.52841596 4.76058041 5.52841596 5 9 C4.34 9.66 3.68 10.32 3 11 C3 9.68 3 8.36 3 7 C2.34 7 1.68 7 1 7 C0.67 4.69 0.34 2.38 0 0 Z " fill="#263986" transform="translate(705,633)"/>
<path d="M0 0 C0.66 0.33 1.32 0.66 2 1 C0.68 3.31 -0.64 5.62 -2 8 C-2.66 7.34 -3.32 6.68 -4 6 C-4 5.01 -4 4.02 -4 3 C-3.34 3 -2.68 3 -2 3 C-2 2.34 -2 1.68 -2 1 C-1.34 0.67 -0.68 0.34 0 0 Z " fill="#273C7F" transform="translate(648,617)"/>
<path d="M0 0 C1.32 0 2.64 0 4 0 C4.33 2.31 4.66 4.62 5 7 C4.01 7 3.02 7 2 7 C2 5.02 2 3.04 2 1 C1.34 0.67 0.68 0.34 0 0 Z " fill="#010B48" transform="translate(654,537)"/>
<path d="M0 0 C0.99 0.99 1.98 1.98 3 3 C2.67 3.99 2.34 4.98 2 6 C2.33 6.99 2.66 7.98 3 9 C2.34 9 1.68 9 1 9 C1 8.34 1 7.68 1 7 C0.34 7 -0.32 7 -1 7 C-0.67 4.69 -0.34 2.38 0 0 Z " fill="#1B255B" transform="translate(651,527)"/>
<path d="M0 0 C0.99 0.33 1.98 0.66 3 1 C1.35 3.64 -0.3 6.28 -2 9 C-3 5 -3 5 -1.5625 2.25 C-1.046875 1.5075 -0.53125 0.765 0 0 Z " fill="#0C0D40" transform="translate(410,525)"/>
<path d="M0 0 C0.625 1.875 0.625 1.875 1 4 C0.34 4.66 -0.32 5.32 -1 6 C-1.99 6 -2.98 6 -4 6 C-4 4.68 -4 3.36 -4 2 C-2.68 1.34 -1.36 0.68 0 0 Z " fill="#01083F" transform="translate(543,496)"/>
<path d="M0 0 C1.04187157 3.12561472 1.23843794 4.04680182 0 7 C-2.0625 8.25 -2.0625 8.25 -4 9 C-2.94124926 5.59687262 -1.99097846 2.98646769 0 0 Z " fill="#3C3C43" transform="translate(516,341)"/>
<path d="M0 0 C2 2 2 2 2.125 5.125 C2.08375 6.07375 2.0425 7.0225 2 8 C1.01 8 0.02 8 -1 8 C-0.67 5.36 -0.34 2.72 0 0 Z " fill="#2C4590" transform="translate(503,664)"/>
<path d="M0 0 C0.98120464 3.05263664 0.98120464 4.94736336 0 8 C-0.66 8 -1.32 8 -2 8 C-2.33 8.66 -2.66 9.32 -3 10 C-2.25 3.375 -2.25 3.375 0 0 Z " fill="#0F2982" transform="translate(562,656)"/>
<path d="M0 0 C0.33 0 0.66 0 1 0 C1.20140476 3.62528568 0.85776765 5.86501708 -1 9 C-1.99 9 -2.98 9 -4 9 C-2.80100302 5.9168649 -1.52299523 2.93720508 0 0 Z " fill="#1A3792" transform="translate(336,652)"/>
<path d="M0 0 C0.33 0.66 0.66 1.32 1 2 C0.34 2 -0.32 2 -1 2 C-1 3.32 -1 4.64 -1 6 C-1.99 6.33 -2.98 6.66 -4 7 C-4.33 6.01 -4.66 5.02 -5 4 C-3 1 -3 1 0 0 Z " fill="#0D2479" transform="translate(347,638)"/>
<path d="M0 0 C-0.66 1.65 -1.32 3.3 -2 5 C-3.32 5 -4.64 5 -6 5 C-5.625 3.0625 -5.625 3.0625 -5 1 C-3 0 -3 0 0 0 Z " fill="#0F2476" transform="translate(692,621)"/>
<path d="M0 0 C0.66 0.66 1.32 1.32 2 2 C0.35 4.97 -1.3 7.94 -3 11 C-4 8 -4 8 -3.22265625 5.95703125 C-2.83980469 5.24933594 -2.45695312 4.54164063 -2.0625 3.8125 C-1.68222656 3.09707031 -1.30195313 2.38164063 -0.91015625 1.64453125 C-0.60980469 1.10183594 -0.30945313 0.55914063 0 0 Z " fill="#3F5592" transform="translate(427,605)"/>
<path d="M0 0 C0.66 0 1.32 0 2 0 C1.29445932 3.66881155 -0.27735506 6.70450534 -2 10 C-2.33 10 -2.66 10 -3 10 C-3.3636198 5.75776898 -2.5393228 3.41831915 0 0 Z " fill="#0D1456" transform="translate(382,573)"/>
<path d="M0 0 C0.66 0.33 1.32 0.66 2 1 C1.67 1.66 1.34 2.32 1 3 C1.66 3.33 2.32 3.66 3 4 C1.625 6 1.625 6 0 8 C-0.66 8 -1.32 8 -2 8 C-2 6.68 -2 5.36 -2 4 C-1.34 4 -0.68 4 0 4 C0 2.68 0 1.36 0 0 Z " fill="#283262" transform="translate(580,534)"/>
<path d="M0 0 C1.2077558 3.62326739 0.54311128 4.64146369 -1 8 C-1.66 8 -2.32 8 -3 8 C-3 8.99 -3 9.98 -3 11 C-3.66 11 -4.32 11 -5 11 C-3.77472971 6.94718288 -2.30119506 3.55639236 0 0 Z " fill="#2F376A" transform="translate(636,527)"/>
<path d="M0 0 C0.99 0 1.98 0 3 0 C5.10770759 2.88834003 6 4.38462395 6 8 C5.34 8 4.68 8 4 8 C2.68 5.36 1.36 2.72 0 0 Z " fill="#33355B" transform="translate(618,483)"/>
<path d="M0 0 C2 2 2 2 2 5 C2.66 5.33 3.32 5.66 4 6 C3.34 6.66 2.68 7.32 2 8 C-0.125 7.625 -0.125 7.625 -2 7 C-2 6.34 -2 5.68 -2 5 C-1.34 5 -0.68 5 0 5 C0 3.35 0 1.7 0 0 Z " fill="#1A204B" transform="translate(506,461)"/>
<path d="M0 0 C0.99 0 1.98 0 3 0 C3 0.66 3 1.32 3 2 C2.34 2 1.68 2 1 2 C1 3.32 1 4.64 1 6 C0.34 6 -0.32 6 -1 6 C-1.33 7.32 -1.66 8.64 -2 10 C-2.17942163 6.05272412 -2.09350689 3.4019487 0 0 Z " fill="#000323" transform="translate(619,458)"/>
<path d="M0 0 C0 1.98 0 3.96 0 6 C-1.32 6 -2.64 6 -4 6 C-3.625 3.5625 -3.625 3.5625 -3 1 C-1 0 -1 0 0 0 Z " fill="#01062F" transform="translate(630,446)"/>
<path d="M0 0 C4 1 4 1 5.25 2.875 C6 5 6 5 6 8 C5.34 8 4.68 8 4 8 C2.68 5.36 1.36 2.72 0 0 Z " fill="#33334B" transform="translate(536,441)"/>
<path d="M0 0 C1.32 0 2.64 0 4 0 C3.625 2.9375 3.625 2.9375 3 6 C2.01 6.495 2.01 6.495 1 7 C0.67 4.69 0.34 2.38 0 0 Z " fill="#000312" transform="translate(544,347)"/>
<path d="M0 0 C0 3.12900213 -0.42451317 4.37418862 -2 7 C-2.99 7.495 -2.99 7.495 -4 8 C-4.33 7.01 -4.66 6.02 -5 5 C-3.35 3.35 -1.7 1.7 0 0 Z " fill="#00010F" transform="translate(521,338)"/>
<path d="M0 0 C0.99 0 1.98 0 3 0 C3.25 2.3125 3.25 2.3125 3 5 C1 6.8125 1 6.8125 -1 8 C-0.67 5.36 -0.34 2.72 0 0 Z " fill="#032985" transform="translate(390,664)"/>
<path d="M0 0 C0.66 0 1.32 0 2 0 C2 1.98 2 3.96 2 6 C0.68 6 -0.64 6 -2 6 C-2 4.68 -2 3.36 -2 2 C-1.34 2 -0.68 2 0 2 C0 1.34 0 0.68 0 0 Z " fill="#031E96" transform="translate(342,650)"/>
<path d="M0 0 C0.66 0 1.32 0 2 0 C1.67 1.98 1.34 3.96 1 6 C0.34 6 -0.32 6 -1 6 C-1.33 6.66 -1.66 7.32 -2 8 C-2.125 5.125 -2.125 5.125 -2 2 C-1.34 1.34 -0.68 0.68 0 0 Z " fill="#021C70" transform="translate(538,606)"/>
<path d="M0 0 C1.65 0 3.3 0 5 0 C5 1.32 5 2.64 5 4 C2.03 3.505 2.03 3.505 -1 3 C-0.67 2.01 -0.34 1.02 0 0 Z " fill="#011A86" transform="translate(417,608)"/>
<path d="M0 0 C0.66 0.33 1.32 0.66 2 1 C1.67 2.32 1.34 3.64 1 5 C-0.32 5 -1.64 5 -3 5 C-3 3.68 -3 2.36 -3 1 C-2.01 0.67 -1.02 0.34 0 0 Z " fill="#011777" transform="translate(509,577)"/>
<path d="M0 0 C0.66 0.33 1.32 0.66 2 1 C-0.475 5.455 -0.475 5.455 -3 10 C-4.09658936 6.71023192 -3.79953138 5.28696233 -3 2 C-2.01 2 -1.02 2 0 2 C0 1.34 0 0.68 0 0 Z " fill="#434C76" transform="translate(587,526)"/>
<path d="M0 0 C0.75 1.6875 0.75 1.6875 1 4 C-0.9375 6.75 -0.9375 6.75 -3 9 C-3.33 8.01 -3.66 7.02 -4 6 C-2.0625 2.8125 -2.0625 2.8125 0 0 Z " fill="#282849" transform="translate(446,463)"/>
<path d="M0 0 C0.66 0 1.32 0 2 0 C1.34 2.64 0.68 5.28 0 8 C-0.99 7.67 -1.98 7.34 -3 7 C-1.125 2.25 -1.125 2.25 0 0 Z " fill="#001264" transform="translate(592,604)"/>
<path d="M0 0 C1.65 0 3.3 0 5 0 C4.67 1.32 4.34 2.64 4 4 C2.68 4.33 1.36 4.66 0 5 C0 3.35 0 1.7 0 0 Z " fill="#00197A" transform="translate(420,592)"/>
<path d="M0 0 C0.99 0.33 1.98 0.66 3 1 C2.67 2.32 2.34 3.64 2 5 C0.68 4.67 -0.64 4.34 -2 4 C-1.34 2.68 -0.68 1.36 0 0 Z " fill="#213174" transform="translate(550,586)"/>
<path d="M0 0 C0.99 0.33 1.98 0.66 3 1 C0.53846154 5.8 0.53846154 5.8 -2.1875 6.8125 C-2.785625 6.874375 -3.38375 6.93625 -4 7 C-4 6.34 -4 5.68 -4 5 C-3.34 5 -2.68 5 -2 5 C-2 4.34 -2 3.68 -2 3 C-1.34 3 -0.68 3 0 3 C0 2.01 0 1.02 0 0 Z " fill="#2D3879" transform="translate(438,585)"/>
<path d="M0 0 C0.99 0 1.98 0 3 0 C2.75 2.375 2.75 2.375 2 5 C-0.0625 6.3125 -0.0625 6.3125 -2 7 C-2 6.01 -2 5.02 -2 4 C-1.34 4 -0.68 4 0 4 C0 2.68 0 1.36 0 0 Z " fill="#05175B" transform="translate(666,582)"/>
<path d="M0 0 C2 2 2 2 2 5 C2.66 5.33 3.32 5.66 4 6 C2.35 6.33 0.7 6.66 -1 7 C-1.04254356 5.00045254 -1.04080783 2.99958364 -1 1 C-0.67 0.67 -0.34 0.34 0 0 Z " fill="#0F1B5A" transform="translate(628,542)"/>
<path d="M0 0 C0.33 0 0.66 0 1 0 C0.67 2.31 0.34 4.62 0 7 C-1.32 7.33 -2.64 7.66 -4 8 C-2.68 5.36 -1.36 2.72 0 0 Z " fill="#383C6D" transform="translate(406,531)"/>
<path d="M0 0 C2.125 0.375 2.125 0.375 4 1 C3.01 1.495 3.01 1.495 2 2 C1.67 2.99 1.34 3.98 1 5 C0.34 5 -0.32 5 -1 5 C-1.33 5.66 -1.66 6.32 -2 7 C-2.125 4.625 -2.125 4.625 -2 2 C-1.34 1.34 -0.68 0.68 0 0 Z " fill="#01062D" transform="translate(614,476)"/>
<path d="M0 0 C0.99 0 1.98 0 3 0 C3 1.65 3 3.3 3 5 C1.68 4.67 0.36 4.34 -1 4 C-0.67 2.68 -0.34 1.36 0 0 Z " fill="#01062A" transform="translate(549,458)"/>
<path d="M0 0 C3.0916909 2.52956528 3.90931332 5.22454612 5 9 C4.01 8.67 3.02 8.34 2 8 C1.26953125 6.15234375 1.26953125 6.15234375 0.8125 3.9375 C0.65394531 3.20402344 0.49539063 2.47054688 0.33203125 1.71484375 C0.22246094 1.14894531 0.11289062 0.58304687 0 0 Z " fill="#383844" transform="translate(560,369)"/>
<path d="M0 0 C0.66 0.33 1.32 0.66 2 1 C1 4 1 4 -1.0625 5.1875 C-1.701875 5.455625 -2.34125 5.72375 -3 6 C-3.33 4.68 -3.66 3.36 -4 2 C-2.125 0.9375 -2.125 0.9375 0 0 Z " fill="#000110" transform="translate(515,348)"/>
<path d="M0 0 C0.66 0.66 1.32 1.32 2 2 C2.99 1.34 3.98 0.68 5 0 C4.39816251 2.02045442 3.72693904 4.02111039 3 6 C2.01 6.495 2.01 6.495 1 7 C0.67 4.69 0.34 2.38 0 0 Z " fill="#1E3B8D" transform="translate(406,636)"/>
<path d="M0 0 C0.99 0 1.98 0 3 0 C3 1.32 3 2.64 3 4 C1.68 4.33 0.36 4.66 -1 5 C-0.67 3.35 -0.34 1.7 0 0 Z " fill="#021D8E" transform="translate(403,636)"/>
<path d="M0 0 C0.66 0.33 1.32 0.66 2 1 C2 2.98 2 4.96 2 7 C1.01 7 0.02 7 -1 7 C-1.04254356 5.00045254 -1.04080783 2.99958364 -1 1 C-0.67 0.67 -0.34 0.34 0 0 Z " fill="#112676" transform="translate(594,601)"/>
<path d="M0 0 C1.98 0.495 1.98 0.495 4 1 C2.68 3.31 1.36 5.62 0 8 C-0.98120464 4.94736336 -0.98120464 3.05263664 0 0 Z " fill="#3C4A86" transform="translate(432,594)"/>
<path d="M0 0 C0.33 0 0.66 0 1 0 C1.125 5.75 1.125 5.75 0 8 C-0.66 8 -1.32 8 -2 8 C-2.33 7.01 -2.66 6.02 -3 5 C-2.34 5 -1.68 5 -1 5 C-0.67 3.35 -0.34 1.7 0 0 Z " fill="#1E2D75" transform="translate(503,570)"/>
<path d="M0 0 C0.66 0 1.32 0 2 0 C1.6875 2.375 1.6875 2.375 1 5 C0.01 5.66 -0.98 6.32 -2 7 C-1.125 1.125 -1.125 1.125 0 0 Z " fill="#001866" transform="translate(390,564)"/>
<path d="M0 0 C0.99 0.33 1.98 0.66 3 1 C1.68 3.31 0.36 5.62 -1 8 C-1.33 8 -1.66 8 -2 8 C-2.20086443 4.28400809 -2.1519437 3.22791555 0 0 Z " fill="#3C4270" transform="translate(466,537)"/>
<path d="M0 0 C0.66 1.32 1.32 2.64 2 4 C1.34 4 0.68 4 0 4 C-0.33 4.99 -0.66 5.98 -1 7 C-1.66 7 -2.32 7 -3 7 C-1.125 1.125 -1.125 1.125 0 0 Z " fill="#2D3464" transform="translate(640,520)"/>
<path d="M0 0 C1 2 1 2 0.25 5.0625 C-0.1625 6.031875 -0.575 7.00125 -1 8 C-1.99 8.33 -2.98 8.66 -4 9 C-2.94124926 5.59687262 -1.99097846 2.98646769 0 0 Z " fill="#000137" transform="translate(651,512)"/>
<path d="M0 0 C1.32 0 2.64 0 4 0 C4 1.98 4 3.96 4 6 C2.68 5.34 1.36 4.68 0 4 C0 2.68 0 1.36 0 0 Z " fill="#010628" transform="translate(536,436)"/>
</svg>
